<svg id="svg" version="1.1" xmlns="http://www.w3.org/2000/svg" xmlns:xlink="http://www.w3.org/1999/xlink" width="400" height="400" viewBox="0, 0, 400,400"><g id="svgg"><path id="path0" d="M232.200 0.357 C 231.029 0.535,230.614 0.781,230.652 1.276 C 230.680 1.648,230.446 2.050,230.131 2.171 C 229.813 2.293,229.667 2.215,229.803 1.995 C 229.937 1.778,229.812 1.606,229.524 1.613 C 228.804 1.630,227.600 2.589,227.600 3.144 C 227.600 3.395,227.330 3.600,227.000 3.600 C 226.670 3.600,226.400 3.780,226.400 4.000 C 226.400 4.220,226.121 4.400,225.779 4.400 C 224.802 4.400,53.600 175.801,53.600 176.780 C 53.600 177.231,53.407 177.600,53.171 177.600 C 52.936 177.600,52.486 177.857,52.171 178.171 C 51.857 178.486,51.600 178.936,51.600 179.171 C 51.600 179.407,51.407 179.600,51.171 179.600 C 50.618 179.600,49.600 180.618,49.600 181.171 C 49.600 181.407,49.330 181.600,49.000 181.600 C 48.632 181.600,48.400 181.974,48.400 182.567 C 48.400 183.910,47.991 184.842,47.527 184.555 C 46.977 184.215,45.600 185.807,45.600 186.783 C 45.600 187.243,45.337 187.600,45.000 187.600 C 44.662 187.600,44.400 187.957,44.400 188.417 C 44.400 188.867,43.950 189.720,43.400 190.313 C 42.850 190.907,42.400 191.619,42.400 191.896 C 42.400 192.173,42.220 192.400,42.000 192.400 C 41.780 192.400,41.600 192.831,41.600 193.357 C 41.600 193.884,41.330 194.418,41.000 194.545 C 40.670 194.671,40.400 195.141,40.400 195.587 C 40.400 196.034,40.220 196.400,40.000 196.400 C 39.780 196.400,39.600 196.828,39.600 197.351 C 39.600 197.874,39.330 198.526,39.000 198.800 C 38.670 199.074,38.400 199.816,38.400 200.449 C 38.400 201.082,38.220 201.600,38.000 201.600 C 37.780 201.600,37.600 202.031,37.600 202.557 C 37.600 203.084,37.330 203.618,37.000 203.745 C 36.653 203.878,36.400 204.476,36.400 205.164 C 36.400 205.818,36.220 206.464,36.000 206.600 C 35.780 206.736,35.600 207.447,35.600 208.181 C 35.600 208.997,35.367 209.604,35.000 209.745 C 34.589 209.902,34.400 210.545,34.400 211.787 C 34.400 212.784,34.220 213.600,34.000 213.600 C 33.780 213.600,33.600 214.423,33.600 215.429 C 33.600 216.521,33.358 217.499,33.000 217.857 C 32.575 218.282,32.400 219.318,32.400 221.405 C 32.400 223.026,32.220 224.464,32.000 224.600 C 31.452 224.939,31.452 252.400,32.000 252.400 C 32.233 252.400,32.400 253.717,32.400 255.551 C 32.400 257.864,32.560 258.834,33.000 259.200 C 33.383 259.518,33.600 260.403,33.600 261.649 C 33.600 262.722,33.780 263.600,34.000 263.600 C 34.220 263.600,34.400 264.404,34.400 265.386 C 34.400 266.754,34.585 267.271,35.188 267.594 C 35.802 267.922,35.924 268.280,35.738 269.208 C 35.587 269.966,35.664 270.400,35.950 270.400 C 36.198 270.400,36.400 271.012,36.400 271.761 C 36.400 272.846,36.650 273.280,37.636 273.904 C 38.614 274.523,38.739 274.738,38.236 274.931 C 37.544 275.196,37.350 276.400,38.000 276.400 C 38.220 276.400,38.400 276.850,38.400 277.400 C 38.400 278.022,38.627 278.400,39.000 278.400 C 39.373 278.400,39.600 278.778,39.600 279.400 C 39.600 279.950,39.780 280.400,40.000 280.400 C 40.220 280.400,40.400 281.005,40.400 281.744 C 40.400 282.711,40.681 283.299,41.400 283.839 C 41.951 284.253,42.400 284.996,42.400 285.495 C 42.400 286.033,42.643 286.400,43.000 286.400 C 43.373 286.400,43.600 286.778,43.600 287.400 C 43.600 287.950,43.780 288.400,44.000 288.400 C 44.220 288.400,44.400 288.766,44.400 289.213 C 44.400 289.659,44.670 290.129,45.000 290.255 C 45.330 290.382,45.600 290.736,45.600 291.043 C 45.600 291.349,45.780 291.600,46.000 291.600 C 46.220 291.600,46.400 291.827,46.400 292.104 C 46.400 292.381,46.850 293.093,47.400 293.687 C 47.950 294.280,48.400 294.953,48.400 295.183 C 48.400 295.412,48.670 295.600,49.000 295.600 C 49.340 295.600,49.600 295.959,49.600 296.429 C 49.600 297.314,50.466 298.400,51.171 298.400 C 51.407 298.400,51.600 298.593,51.600 298.829 C 51.600 299.382,52.618 300.400,53.171 300.400 C 53.407 300.400,53.600 300.593,53.600 300.829 C 53.600 301.382,54.618 302.400,55.171 302.400 C 55.407 302.400,55.600 302.593,55.600 302.829 C 55.600 303.382,56.618 304.400,57.171 304.400 C 57.407 304.400,57.600 304.577,57.600 304.793 C 57.600 305.009,58.725 306.338,60.100 307.747 C 61.475 309.156,66.830 314.656,72.000 319.969 C 92.108 340.631,129.162 377.600,129.765 377.600 C 130.114 377.600,130.400 377.780,130.400 378.000 C 130.400 378.220,130.670 378.400,131.000 378.400 C 131.330 378.400,131.600 378.593,131.600 378.829 C 131.600 379.382,132.618 380.400,133.171 380.400 C 133.407 380.400,133.600 380.593,133.600 380.829 C 133.600 381.382,134.618 382.400,135.171 382.400 C 135.407 382.400,135.600 382.670,135.600 383.000 C 135.600 383.340,135.959 383.600,136.429 383.600 C 137.314 383.600,138.400 384.466,138.400 385.171 C 138.400 385.407,138.670 385.600,139.000 385.600 C 139.330 385.600,139.600 385.780,139.600 386.000 C 139.600 386.220,140.050 386.400,140.600 386.400 C 141.150 386.400,141.600 386.605,141.600 386.856 C 141.600 387.457,142.828 388.371,143.657 388.387 C 144.019 388.394,144.418 388.670,144.545 389.000 C 144.671 389.330,145.141 389.600,145.587 389.600 C 146.034 389.600,146.400 389.780,146.400 390.000 C 146.400 390.220,146.850 390.400,147.400 390.400 C 148.022 390.400,148.400 390.627,148.400 391.000 C 148.400 391.373,148.778 391.600,149.400 391.600 C 149.950 391.600,150.400 391.780,150.400 392.000 C 150.400 392.220,150.831 392.400,151.357 392.400 C 151.884 392.400,152.418 392.670,152.545 393.000 C 152.689 393.377,153.301 393.600,154.187 393.600 C 154.964 393.600,155.600 393.780,155.600 394.000 C 155.600 394.220,156.050 394.400,156.600 394.400 C 157.222 394.400,157.600 394.627,157.600 395.000 C 157.600 395.419,158.022 395.600,159.000 395.600 C 159.770 395.600,160.400 395.780,160.400 396.000 C 160.400 396.220,161.101 396.400,161.957 396.400 C 162.972 396.400,163.595 396.609,163.745 397.000 C 163.902 397.411,164.545 397.600,165.787 397.600 C 166.784 397.600,167.600 397.780,167.600 398.000 C 167.600 398.220,168.615 398.400,169.856 398.400 C 171.543 398.400,172.241 398.577,172.624 399.100 C 173.414 400.181,212.586 400.181,213.376 399.100 C 213.759 398.577,214.457 398.400,216.144 398.400 C 217.385 398.400,218.400 398.220,218.400 398.000 C 218.400 397.780,219.107 397.600,219.971 397.600 C 220.836 397.600,221.813 397.330,222.143 397.000 C 222.473 396.670,223.296 396.400,223.971 396.400 C 224.647 396.400,225.200 396.220,225.200 396.000 C 225.200 395.780,225.824 395.600,226.586 395.600 C 227.963 395.600,229.133 394.491,228.486 393.800 C 228.329 393.632,228.629 393.744,229.152 394.047 C 229.899 394.481,230.144 394.492,230.286 394.100 C 230.385 393.825,230.902 393.600,231.433 393.600 C 231.965 393.600,232.400 393.422,232.400 393.205 C 232.400 392.584,233.705 391.218,234.078 391.448 C 234.262 391.562,234.309 391.823,234.183 392.028 C 234.056 392.232,234.223 392.400,234.553 392.400 C 234.883 392.400,235.264 392.220,235.400 392.000 C 235.536 391.780,236.002 391.600,236.436 391.600 C 236.870 391.600,237.329 391.330,237.455 391.000 C 237.582 390.670,237.981 390.394,238.343 390.387 C 239.172 390.371,240.400 389.457,240.400 388.856 C 240.400 388.605,240.850 388.400,241.400 388.400 C 241.950 388.400,242.400 388.220,242.400 388.000 C 242.400 387.780,242.850 387.600,243.400 387.600 C 244.022 387.600,244.400 387.373,244.400 387.000 C 244.400 386.670,244.670 386.400,245.000 386.400 C 245.330 386.400,245.600 386.220,245.600 386.000 C 245.600 385.780,245.935 385.600,246.344 385.600 C 246.753 385.600,247.426 385.150,247.839 384.600 C 248.252 384.050,248.817 383.600,249.095 383.600 C 249.373 383.600,249.600 383.330,249.600 383.000 C 249.600 382.660,249.959 382.400,250.429 382.400 C 251.314 382.400,252.400 381.534,252.400 380.829 C 252.400 380.593,252.593 380.400,252.829 380.400 C 253.382 380.400,254.400 379.382,254.400 378.829 C 254.400 378.593,254.593 378.400,254.829 378.400 C 255.382 378.400,256.400 377.382,256.400 376.829 C 256.400 376.593,256.593 376.400,256.829 376.400 C 257.382 376.400,258.400 375.382,258.400 374.829 C 258.400 374.593,258.593 374.400,258.829 374.400 C 259.382 374.400,260.400 373.382,260.400 372.829 C 260.400 372.593,260.593 372.400,260.829 372.400 C 261.382 372.400,262.400 371.382,262.400 370.829 C 262.400 370.593,262.593 370.400,262.829 370.400 C 263.382 370.400,264.400 369.382,264.400 368.829 C 264.400 368.593,264.593 368.400,264.829 368.400 C 265.382 368.400,266.400 367.382,266.400 366.829 C 266.400 366.593,266.593 366.400,266.829 366.400 C 267.382 366.400,268.400 365.382,268.400 364.829 C 268.400 364.593,268.593 364.400,268.829 364.400 C 269.382 364.400,270.400 363.382,270.400 362.829 C 270.400 362.593,270.593 362.400,270.829 362.400 C 271.382 362.400,272.400 361.382,272.400 360.829 C 272.400 360.593,272.593 360.400,272.829 360.400 C 273.382 360.400,274.400 359.382,274.400 358.829 C 274.400 358.593,274.593 358.400,274.829 358.400 C 275.382 358.400,276.400 357.382,276.400 356.829 C 276.400 356.593,276.593 356.400,276.829 356.400 C 277.382 356.400,278.400 355.382,278.400 354.829 C 278.400 354.593,278.593 354.400,278.829 354.400 C 279.382 354.400,280.400 353.382,280.400 352.829 C 280.400 352.593,280.593 352.400,280.829 352.400 C 281.382 352.400,282.400 351.382,282.400 350.829 C 282.400 350.593,282.593 350.400,282.829 350.400 C 283.382 350.400,284.400 349.382,284.400 348.829 C 284.400 348.593,284.593 348.400,284.829 348.400 C 285.382 348.400,286.400 347.382,286.400 346.829 C 286.400 346.593,286.593 346.400,286.829 346.400 C 287.382 346.400,288.400 345.382,288.400 344.829 C 288.400 344.593,288.593 344.400,288.829 344.400 C 289.382 344.400,290.400 343.382,290.400 342.829 C 290.400 342.593,290.593 342.400,290.829 342.400 C 291.382 342.400,292.400 341.382,292.400 340.829 C 292.400 340.593,292.593 340.400,292.829 340.400 C 293.382 340.400,294.400 339.382,294.400 338.829 C 294.400 338.593,294.593 338.400,294.829 338.400 C 295.382 338.400,296.400 337.382,296.400 336.829 C 296.400 336.593,296.593 336.400,296.829 336.400 C 297.382 336.400,298.400 335.382,298.400 334.829 C 298.400 334.593,298.593 334.400,298.829 334.400 C 299.382 334.400,300.400 333.382,300.400 332.829 C 300.400 332.593,300.593 332.400,300.829 332.400 C 301.382 332.400,302.400 331.382,302.400 330.829 C 302.400 330.593,302.605 330.400,302.856 330.400 C 303.457 330.400,304.371 329.172,304.387 328.343 C 304.394 327.981,304.670 327.582,305.000 327.455 C 305.330 327.329,305.600 326.859,305.600 326.413 C 305.600 325.966,305.780 325.600,306.000 325.600 C 306.220 325.600,306.400 324.880,306.400 324.000 C 306.400 322.844,306.567 322.400,307.000 322.400 C 307.508 322.400,307.600 321.422,307.600 316.000 C 307.600 310.578,307.508 309.600,307.000 309.600 C 306.547 309.600,306.400 309.111,306.400 307.600 C 306.400 306.500,306.220 305.600,306.000 305.600 C 305.780 305.600,305.600 305.330,305.600 305.000 C 305.600 304.670,305.330 304.400,305.000 304.400 C 304.660 304.400,304.400 304.041,304.400 303.571 C 304.400 302.686,303.534 301.600,302.829 301.600 C 302.593 301.600,302.400 301.211,302.400 300.736 C 302.400 299.822,299.013 296.400,298.109 296.400 C 297.829 296.400,297.600 296.220,297.600 296.000 C 297.600 295.780,297.330 295.600,297.000 295.600 C 296.670 295.600,296.400 295.330,296.400 295.000 C 296.400 294.627,296.022 294.400,295.400 294.400 C 294.850 294.400,294.400 294.220,294.400 294.000 C 294.400 293.780,293.972 293.600,293.449 293.600 C 292.926 293.600,292.274 293.330,292.000 293.000 C 291.682 292.617,290.797 292.400,289.551 292.400 C 288.478 292.400,287.600 292.220,287.600 292.000 C 287.600 291.467,278.929 291.467,278.600 292.000 C 278.464 292.220,277.665 292.400,276.825 292.400 C 275.428 292.400,274.106 293.172,274.621 293.687 C 274.738 293.805,274.547 294.011,274.196 294.146 C 273.827 294.288,273.661 294.224,273.803 293.995 C 273.937 293.778,273.767 293.600,273.424 293.600 C 273.081 293.600,272.800 293.780,272.800 294.000 C 272.800 294.220,272.530 294.400,272.200 294.400 C 271.870 294.400,271.600 294.670,271.600 295.000 C 271.600 295.346,271.239 295.600,270.747 295.600 C 270.278 295.600,269.300 296.230,268.574 297.000 C 267.848 297.770,267.062 298.400,266.827 298.400 C 266.592 298.400,266.400 298.593,266.400 298.829 C 266.400 299.382,265.382 300.400,264.829 300.400 C 264.593 300.400,264.400 300.593,264.400 300.829 C 264.400 301.382,263.382 302.400,262.829 302.400 C 262.593 302.400,262.400 302.593,262.400 302.829 C 262.400 303.382,261.382 304.400,260.829 304.400 C 260.593 304.400,260.400 304.593,260.400 304.829 C 260.400 305.382,259.382 306.400,258.829 306.400 C 258.593 306.400,258.400 306.593,258.400 306.829 C 258.400 307.382,257.382 308.400,256.829 308.400 C 256.593 308.400,256.400 308.593,256.400 308.829 C 256.400 309.382,255.382 310.400,254.829 310.400 C 254.593 310.400,254.400 310.670,254.400 311.000 C 254.400 311.330,254.163 311.600,253.873 311.600 C 253.583 311.600,252.638 312.230,251.773 313.000 C 250.908 313.770,250.065 314.400,249.900 314.400 C 249.735 314.400,249.600 314.670,249.600 315.000 C 249.600 315.330,249.407 315.600,249.171 315.600 C 248.618 315.600,247.600 316.618,247.600 317.171 C 247.600 317.407,247.407 317.600,247.171 317.600 C 246.618 317.600,245.600 318.618,245.600 319.171 C 245.600 319.407,245.407 319.600,245.171 319.600 C 244.618 319.600,243.600 320.618,243.600 321.171 C 243.600 321.407,243.407 321.600,243.171 321.600 C 242.618 321.600,241.600 322.618,241.600 323.171 C 241.600 323.407,241.407 323.600,241.171 323.600 C 240.618 323.600,239.600 324.618,239.600 325.171 C 239.600 325.407,239.407 325.600,239.171 325.600 C 238.618 325.600,237.600 326.618,237.600 327.171 C 237.600 327.407,237.407 327.600,237.171 327.600 C 236.618 327.600,235.600 328.618,235.600 329.171 C 235.600 329.407,235.407 329.600,235.171 329.600 C 234.618 329.600,233.600 330.618,233.600 331.171 C 233.600 331.407,233.407 331.600,233.171 331.600 C 232.618 331.600,231.600 332.618,231.600 333.171 C 231.600 333.407,231.407 333.600,231.171 333.600 C 230.618 333.600,229.600 334.618,229.600 335.171 C 229.600 335.407,229.407 335.600,229.171 335.600 C 228.618 335.600,227.600 336.618,227.600 337.171 C 227.600 337.407,227.412 337.600,227.183 337.600 C 226.791 337.600,226.338 337.913,225.015 339.100 C 224.708 339.375,224.336 339.600,224.187 339.600 C 224.038 339.600,222.860 340.680,221.568 342.000 C 220.277 343.320,219.035 344.400,218.810 344.400 C 218.584 344.400,218.400 344.670,218.400 345.000 C 218.400 345.373,218.022 345.600,217.400 345.600 C 216.850 345.600,216.400 345.767,216.400 345.972 C 216.400 346.177,215.995 346.402,215.500 346.472 C 214.974 346.547,214.618 346.864,214.645 347.234 C 214.676 347.683,214.427 347.818,213.791 347.696 C 213.298 347.602,212.772 347.722,212.623 347.962 C 212.475 348.203,211.998 348.400,211.564 348.400 C 211.130 348.400,210.671 348.670,210.545 349.000 C 210.418 349.330,209.884 349.600,209.357 349.600 C 208.831 349.600,208.400 349.780,208.400 350.000 C 208.400 350.220,207.584 350.400,206.587 350.400 C 205.345 350.400,204.702 350.589,204.545 351.000 C 204.367 351.463,203.597 351.600,201.181 351.600 C 199.457 351.600,197.936 351.780,197.800 352.000 C 197.474 352.528,188.526 352.528,188.200 352.000 C 188.064 351.780,186.543 351.600,184.819 351.600 C 182.403 351.600,181.633 351.463,181.455 351.000 C 181.298 350.589,180.655 350.400,179.413 350.400 C 178.416 350.400,177.600 350.220,177.600 350.000 C 177.600 349.780,177.169 349.600,176.643 349.600 C 176.116 349.600,175.582 349.330,175.455 349.000 C 175.329 348.670,174.870 348.400,174.436 348.400 C 174.002 348.400,173.525 348.203,173.377 347.962 C 173.228 347.722,172.702 347.602,172.209 347.696 C 171.573 347.818,171.324 347.683,171.355 347.234 C 171.382 346.864,171.026 346.547,170.500 346.472 C 170.005 346.402,169.600 346.177,169.600 345.972 C 169.600 345.767,169.330 345.600,169.000 345.600 C 168.670 345.600,168.400 345.432,168.400 345.227 C 168.400 345.022,168.035 344.738,167.588 344.596 C 166.690 344.311,113.600 291.391,113.600 290.781 C 113.600 290.572,113.407 290.400,113.171 290.400 C 112.618 290.400,111.600 289.382,111.600 288.829 C 111.600 288.593,111.407 288.400,111.171 288.400 C 110.618 288.400,109.600 287.382,109.600 286.829 C 109.600 286.593,109.407 286.400,109.171 286.400 C 108.618 286.400,107.600 285.382,107.600 284.829 C 107.600 284.593,107.407 284.400,107.171 284.400 C 106.618 284.400,105.600 283.382,105.600 282.829 C 105.600 282.593,105.407 282.400,105.171 282.400 C 104.618 282.400,103.600 281.382,103.600 280.829 C 103.600 280.593,103.407 280.400,103.171 280.400 C 102.618 280.400,101.600 279.382,101.600 278.829 C 101.600 278.593,101.407 278.400,101.171 278.400 C 100.618 278.400,99.600 277.382,99.600 276.829 C 99.600 276.593,99.407 276.400,99.171 276.400 C 98.618 276.400,97.600 275.382,97.600 274.829 C 97.600 274.593,97.407 274.400,97.171 274.400 C 96.618 274.400,95.600 273.382,95.600 272.829 C 95.600 272.593,95.407 272.400,95.171 272.400 C 94.618 272.400,93.600 271.382,93.600 270.829 C 93.600 270.593,93.407 270.400,93.171 270.400 C 92.618 270.400,91.600 269.382,91.600 268.829 C 91.600 268.593,91.407 268.400,91.171 268.400 C 90.561 268.400,89.753 267.511,89.426 266.481 C 89.272 265.997,88.978 265.600,88.773 265.600 C 88.568 265.600,88.400 265.407,88.400 265.171 C 88.400 264.618,87.382 263.600,86.829 263.600 C 86.593 263.600,86.400 263.150,86.400 262.600 C 86.400 262.050,86.220 261.600,86.000 261.600 C 85.780 261.600,85.600 261.234,85.600 260.787 C 85.600 260.341,85.330 259.871,85.000 259.745 C 84.670 259.618,84.400 259.084,84.400 258.557 C 84.400 258.031,84.220 257.600,84.000 257.600 C 83.780 257.600,83.600 257.150,83.600 256.600 C 83.600 255.978,83.373 255.600,83.000 255.600 C 82.583 255.600,82.400 255.180,82.400 254.224 C 82.400 253.467,82.220 252.736,82.000 252.600 C 81.780 252.464,81.600 251.755,81.600 251.025 C 81.600 250.295,81.330 249.474,81.000 249.200 C 80.581 248.853,80.400 247.931,80.400 246.151 C 80.400 244.717,80.225 243.600,80.000 243.600 C 79.755 243.600,79.600 241.667,79.600 238.600 C 79.600 235.533,79.755 233.600,80.000 233.600 C 80.225 233.600,80.400 232.481,80.400 231.043 C 80.400 229.139,80.553 228.427,81.000 228.255 C 81.411 228.098,81.600 227.455,81.600 226.213 C 81.600 225.216,81.780 224.400,82.000 224.400 C 82.220 224.400,82.400 223.770,82.400 223.000 C 82.400 222.022,82.581 221.600,83.000 221.600 C 83.373 221.600,83.600 221.222,83.600 220.600 C 83.600 220.050,83.780 219.600,84.000 219.600 C 84.220 219.600,84.400 219.150,84.400 218.600 C 84.400 217.978,84.627 217.600,85.000 217.600 C 85.373 217.600,85.600 217.222,85.600 216.600 C 85.600 216.050,85.780 215.600,86.000 215.600 C 86.220 215.600,86.400 215.409,86.400 215.176 C 86.400 214.943,86.220 214.864,86.000 215.000 C 85.780 215.136,85.600 215.057,85.600 214.824 C 85.600 214.591,86.050 214.400,86.600 214.400 C 87.345 214.400,87.600 214.189,87.600 213.571 C 87.600 212.686,88.466 211.600,89.171 211.600 C 89.407 211.600,89.600 211.431,89.600 211.225 C 89.600 211.019,93.380 207.056,98.000 202.419 C 102.620 197.782,106.400 193.902,106.400 193.797 C 106.400 193.546,107.920 191.733,109.300 190.338 C 109.905 189.727,110.400 189.041,110.400 188.813 C 110.400 188.586,110.593 188.400,110.829 188.400 C 111.064 188.400,111.514 188.143,111.829 187.829 C 112.143 187.514,112.400 187.064,112.400 186.829 C 112.400 186.593,112.593 186.400,112.829 186.400 C 113.064 186.400,113.514 186.143,113.829 185.829 C 114.143 185.514,114.400 185.064,114.400 184.829 C 114.400 184.593,114.593 184.400,114.829 184.400 C 115.064 184.400,115.514 184.143,115.829 183.829 C 116.143 183.514,116.400 183.064,116.400 182.829 C 116.400 182.593,116.593 182.400,116.829 182.400 C 117.064 182.400,117.514 182.143,117.829 181.829 C 118.143 181.514,118.400 181.064,118.400 180.829 C 118.400 180.593,118.593 180.400,118.829 180.400 C 119.064 180.400,119.514 180.143,119.829 179.829 C 120.143 179.514,120.400 179.064,120.400 178.829 C 120.400 178.593,120.593 178.400,120.829 178.400 C 121.064 178.400,121.514 178.143,121.829 177.829 C 122.143 177.514,122.400 177.064,122.400 176.829 C 122.400 176.593,122.593 176.400,122.829 176.400 C 123.064 176.400,123.514 176.143,123.829 175.829 C 124.143 175.514,124.400 175.064,124.400 174.829 C 124.400 174.593,124.593 174.400,124.829 174.400 C 125.382 174.400,126.400 173.382,126.400 172.829 C 126.400 172.593,126.593 172.400,126.829 172.400 C 127.382 172.400,128.400 171.382,128.400 170.829 C 128.400 170.593,128.593 170.400,128.829 170.400 C 129.382 170.400,130.400 169.382,130.400 168.829 C 130.400 168.593,130.593 168.400,130.829 168.400 C 131.382 168.400,132.400 167.382,132.400 166.829 C 132.400 166.593,132.593 166.400,132.829 166.400 C 133.382 166.400,134.400 165.382,134.400 164.829 C 134.400 164.593,134.593 164.400,134.829 164.400 C 135.382 164.400,136.400 163.382,136.400 162.829 C 136.400 162.593,136.593 162.400,136.829 162.400 C 137.382 162.400,138.400 161.382,138.400 160.829 C 138.400 160.593,138.593 160.400,138.829 160.400 C 139.382 160.400,140.400 159.382,140.400 158.829 C 140.400 158.593,140.593 158.400,140.829 158.400 C 141.382 158.400,142.400 157.382,142.400 156.829 C 142.400 156.593,142.593 156.400,142.829 156.400 C 143.382 156.400,144.400 155.382,144.400 154.829 C 144.400 154.593,144.593 154.400,144.829 154.400 C 145.382 154.400,146.400 153.382,146.400 152.829 C 146.400 152.593,146.593 152.400,146.829 152.400 C 147.382 152.400,148.400 151.382,148.400 150.829 C 148.400 150.593,148.593 150.400,148.829 150.400 C 149.382 150.400,150.400 149.382,150.400 148.829 C 150.400 148.593,150.593 148.400,150.829 148.400 C 151.382 148.400,152.400 147.382,152.400 146.829 C 152.400 146.593,152.593 146.400,152.829 146.400 C 153.382 146.400,154.400 145.382,154.400 144.829 C 154.400 144.593,154.593 144.400,154.829 144.400 C 155.382 144.400,156.400 143.382,156.400 142.829 C 156.400 142.593,156.593 142.400,156.829 142.400 C 157.382 142.400,158.400 141.382,158.400 140.829 C 158.400 140.593,158.593 140.400,158.829 140.400 C 159.382 140.400,160.400 139.382,160.400 138.829 C 160.400 138.593,160.593 138.400,160.829 138.400 C 161.382 138.400,162.400 137.382,162.400 136.829 C 162.400 136.593,162.593 136.400,162.829 136.400 C 163.382 136.400,164.400 135.382,164.400 134.829 C 164.400 134.593,164.593 134.400,164.829 134.400 C 165.382 134.400,166.400 133.382,166.400 132.829 C 166.400 132.593,166.850 132.400,167.400 132.400 C 167.950 132.400,168.400 132.220,168.400 132.000 C 168.400 131.780,168.670 131.600,169.000 131.600 C 169.330 131.600,169.600 131.330,169.600 131.000 C 169.600 130.627,169.978 130.400,170.600 130.400 C 171.150 130.400,171.600 130.220,171.600 130.000 C 171.600 129.780,172.050 129.600,172.600 129.600 C 173.222 129.600,173.600 129.373,173.600 129.000 C 173.600 128.581,174.022 128.400,175.000 128.400 C 175.770 128.400,176.400 128.220,176.400 128.000 C 176.400 127.780,177.098 127.600,177.951 127.600 C 178.842 127.600,179.714 127.345,180.000 127.000 C 180.328 126.604,181.222 126.400,182.625 126.400 C 183.795 126.400,184.864 126.220,185.000 126.000 C 185.334 125.460,200.666 125.460,201.000 126.000 C 201.136 126.220,202.207 126.400,203.381 126.400 C 204.908 126.400,205.580 126.570,205.745 127.000 C 205.889 127.377,206.501 127.600,207.387 127.600 C 208.164 127.600,208.800 127.780,208.800 128.000 C 208.800 128.220,209.430 128.400,210.200 128.400 C 211.178 128.400,211.600 128.581,211.600 129.000 C 211.600 129.373,211.978 129.600,212.600 129.600 C 213.150 129.600,213.600 129.780,213.600 130.000 C 213.600 130.220,214.050 130.400,214.600 130.400 C 215.222 130.400,215.600 130.627,215.600 131.000 C 215.600 131.340,215.959 131.600,216.427 131.600 C 216.882 131.600,217.848 132.230,218.574 133.000 C 219.300 133.770,220.278 134.400,220.747 134.400 C 221.216 134.400,221.600 134.593,221.600 134.829 C 221.600 135.382,222.618 136.400,223.171 136.400 C 223.407 136.400,223.600 136.593,223.600 136.829 C 223.600 137.382,224.618 138.400,225.171 138.400 C 225.407 138.400,225.600 138.593,225.600 138.829 C 225.600 139.382,226.618 140.400,227.171 140.400 C 227.407 140.400,227.600 140.593,227.600 140.829 C 227.600 141.457,228.649 142.400,229.348 142.400 C 229.681 142.400,230.081 142.608,230.238 142.862 C 230.415 143.148,230.348 143.215,230.062 143.038 C 229.808 142.881,229.600 142.866,229.600 143.005 C 229.600 143.416,230.708 144.400,231.171 144.400 C 231.407 144.400,231.600 144.593,231.600 144.829 C 231.600 145.382,232.618 146.400,233.171 146.400 C 233.407 146.400,233.600 146.593,233.600 146.829 C 233.600 147.382,234.618 148.400,235.171 148.400 C 235.407 148.400,235.600 148.593,235.600 148.829 C 235.600 149.382,236.618 150.400,237.171 150.400 C 237.407 150.400,237.600 150.593,237.600 150.829 C 237.600 151.382,238.618 152.400,239.171 152.400 C 239.407 152.400,239.600 152.670,239.600 153.000 C 239.600 153.330,239.750 153.600,239.933 153.600 C 240.116 153.600,241.363 154.680,242.703 156.000 C 244.044 157.320,245.424 158.400,245.770 158.400 C 246.117 158.400,246.400 158.670,246.400 159.000 C 246.400 159.330,246.593 159.600,246.829 159.600 C 247.382 159.600,248.400 160.618,248.400 161.171 C 248.400 161.407,248.593 161.600,248.829 161.600 C 249.382 161.600,250.400 162.618,250.400 163.171 C 250.400 163.407,250.593 163.600,250.829 163.600 C 251.382 163.600,252.400 164.618,252.400 165.171 C 252.400 165.407,252.593 165.600,252.829 165.600 C 253.382 165.600,254.400 166.618,254.400 167.171 C 254.400 167.407,254.593 167.600,254.829 167.600 C 255.403 167.600,256.400 168.626,256.400 169.218 C 256.400 169.502,256.734 169.606,257.232 169.476 C 257.827 169.320,258.003 169.415,257.852 169.809 C 257.718 170.157,257.843 170.282,258.191 170.148 C 258.585 169.997,258.680 170.173,258.524 170.768 C 258.394 171.266,258.498 171.600,258.782 171.600 C 259.374 171.600,260.400 172.597,260.400 173.171 C 260.400 173.407,260.581 173.600,260.802 173.600 C 261.023 173.600,262.717 175.130,264.566 177.000 C 266.415 178.870,268.047 180.400,268.192 180.400 C 268.338 180.400,268.708 180.625,269.015 180.900 C 270.318 182.069,270.787 182.400,271.140 182.400 C 271.346 182.400,271.618 182.670,271.745 183.000 C 271.871 183.330,272.341 183.600,272.787 183.600 C 273.234 183.600,273.600 183.780,273.600 184.000 C 273.600 184.220,274.211 184.400,274.957 184.400 C 275.795 184.400,276.403 184.630,276.545 185.000 C 276.719 185.455,277.456 185.600,279.587 185.600 C 281.196 185.600,282.400 185.771,282.400 186.000 C 282.400 186.220,283.120 186.400,284.000 186.400 C 284.880 186.400,285.600 186.220,285.600 186.000 C 285.600 185.779,286.646 185.600,287.938 185.600 C 290.052 185.600,291.946 184.729,291.501 183.961 C 291.445 183.865,291.571 183.925,291.780 184.093 C 292.328 184.536,293.600 184.471,293.600 184.000 C 293.600 183.780,294.050 183.600,294.600 183.600 C 295.317 183.600,295.600 183.384,295.600 182.837 C 295.600 182.276,295.808 182.129,296.386 182.280 C 297.183 182.489,298.400 181.612,298.400 180.829 C 298.400 180.593,298.593 180.400,298.829 180.400 C 299.382 180.400,300.400 179.382,300.400 178.829 C 300.400 178.593,300.593 178.400,300.829 178.400 C 301.382 178.400,302.400 177.382,302.400 176.829 C 302.400 176.593,302.593 176.400,302.829 176.400 C 303.521 176.400,304.400 175.321,304.400 174.471 C 304.400 174.039,304.670 173.582,305.000 173.455 C 305.330 173.329,305.600 172.859,305.600 172.413 C 305.600 171.966,305.780 171.600,306.000 171.600 C 306.220 171.600,306.400 170.880,306.400 170.000 C 306.400 168.844,306.567 168.400,307.000 168.400 C 307.508 168.400,307.600 167.422,307.600 162.000 C 307.600 156.578,307.508 155.600,307.000 155.600 C 306.567 155.600,306.400 155.156,306.400 154.000 C 306.400 153.120,306.220 152.400,306.000 152.400 C 305.780 152.400,305.600 151.950,305.600 151.400 C 305.600 150.778,305.373 150.400,305.000 150.400 C 304.660 150.400,304.400 150.041,304.400 149.571 C 304.400 148.686,303.534 147.600,302.829 147.600 C 302.593 147.600,302.400 147.407,302.400 147.171 C 302.400 146.618,301.382 145.600,300.829 145.600 C 300.593 145.600,300.400 145.407,300.400 145.171 C 300.400 144.618,299.382 143.600,298.829 143.600 C 298.593 143.600,298.400 143.407,298.400 143.171 C 298.400 142.618,297.382 141.600,296.829 141.600 C 296.593 141.600,296.400 141.407,296.400 141.171 C 296.400 140.618,295.382 139.600,294.829 139.600 C 294.593 139.600,294.400 139.407,294.400 139.171 C 294.400 138.618,293.382 137.600,292.829 137.600 C 292.593 137.600,292.400 137.407,292.400 137.171 C 292.400 136.618,291.382 135.600,290.829 135.600 C 290.593 135.600,290.400 135.412,290.400 135.183 C 290.400 134.697,289.950 134.119,287.900 131.971 C 287.075 131.107,286.400 130.309,286.400 130.198 C 286.400 129.496,253.943 97.600,253.229 97.600 C 252.773 97.600,252.400 97.407,252.400 97.171 C 252.400 96.618,251.382 95.600,250.829 95.600 C 250.593 95.600,250.400 95.407,250.400 95.171 C 250.400 94.466,249.314 93.600,248.429 93.600 C 247.959 93.600,247.600 93.340,247.600 93.000 C 247.600 92.670,247.330 92.400,247.000 92.400 C 246.670 92.400,246.400 92.220,246.400 92.000 C 246.400 91.780,246.207 91.600,245.971 91.600 C 245.736 91.600,245.292 91.375,244.985 91.100 C 243.562 89.823,243.179 89.600,242.417 89.600 C 241.957 89.600,241.600 89.337,241.600 89.000 C 241.600 88.627,241.222 88.400,240.600 88.400 C 240.050 88.400,239.600 88.220,239.600 88.000 C 239.600 87.780,239.150 87.600,238.600 87.600 C 237.978 87.600,237.600 87.373,237.600 87.000 C 237.600 86.670,237.330 86.400,237.000 86.400 C 236.670 86.400,236.400 86.220,236.400 86.000 C 236.400 85.780,236.029 85.600,235.576 85.600 C 235.123 85.600,234.864 85.780,235.000 86.000 C 235.136 86.220,235.142 86.400,235.014 86.400 C 234.885 86.400,234.609 85.950,234.400 85.400 C 234.110 84.638,233.732 84.400,232.810 84.400 C 232.144 84.400,231.600 84.220,231.600 84.000 C 231.600 83.780,231.169 83.600,230.643 83.600 C 230.116 83.600,229.582 83.330,229.455 83.000 C 229.311 82.623,228.699 82.400,227.813 82.400 C 227.036 82.400,226.400 82.220,226.400 82.000 C 226.400 81.780,225.789 81.600,225.043 81.600 C 224.232 81.600,223.597 81.369,223.465 81.025 C 223.343 80.706,222.586 80.395,221.763 80.325 C 219.503 80.134,218.953 77.600,221.171 77.600 C 221.407 77.600,221.600 77.407,221.600 77.171 C 221.600 76.618,222.618 75.600,223.171 75.600 C 223.407 75.600,223.600 75.427,223.600 75.215 C 223.600 75.004,231.430 67.004,241.000 57.439 C 252.667 45.778,258.400 39.776,258.400 39.223 C 258.400 38.771,258.593 38.400,258.829 38.400 C 259.382 38.400,260.400 37.382,260.400 36.829 C 260.400 36.593,260.670 36.400,261.000 36.400 C 261.373 36.400,261.600 36.022,261.600 35.400 C 261.600 34.850,261.780 34.400,262.000 34.400 C 262.220 34.400,262.400 33.950,262.400 33.400 C 262.400 32.778,262.627 32.400,263.000 32.400 C 263.419 32.400,263.600 31.978,263.600 31.000 C 263.600 30.230,263.780 29.600,264.000 29.600 C 264.250 29.600,264.400 27.208,264.400 23.224 C 264.400 19.404,264.240 16.748,264.000 16.600 C 263.780 16.464,263.600 15.733,263.600 14.976 C 263.600 14.020,263.417 13.600,263.000 13.600 C 262.627 13.600,262.400 13.222,262.400 12.600 C 262.400 12.050,262.220 11.600,262.000 11.600 C 261.780 11.600,261.600 11.234,261.600 10.787 C 261.600 10.341,261.330 9.871,261.000 9.745 C 260.670 9.618,260.400 9.341,260.400 9.129 C 260.400 8.610,259.362 7.600,258.829 7.600 C 258.593 7.600,258.400 7.407,258.400 7.171 C 258.400 6.618,257.382 5.600,256.829 5.600 C 256.593 5.600,256.400 5.407,256.400 5.171 C 256.400 4.638,255.390 3.600,254.871 3.600 C 254.659 3.600,254.382 3.330,254.255 3.000 C 254.129 2.670,253.659 2.400,253.213 2.400 C 252.766 2.400,252.400 2.220,252.400 2.000 C 252.400 1.780,251.950 1.600,251.400 1.600 C 250.823 1.600,250.400 1.370,250.400 1.056 C 250.400 0.093,237.254 -0.412,232.200 0.357 M176.400 216.000 C 176.400 216.229,175.196 216.400,173.587 216.400 C 171.456 216.400,170.719 216.545,170.545 217.000 C 170.418 217.330,169.884 217.600,169.357 217.600 C 168.831 217.600,168.400 217.780,168.400 218.000 C 168.400 218.220,167.950 218.400,167.400 218.400 C 166.778 218.400,166.400 218.627,166.400 219.000 C 166.400 219.340,166.041 219.600,165.571 219.600 C 164.686 219.600,163.600 220.466,163.600 221.171 C 163.600 221.407,163.407 221.600,163.171 221.600 C 162.618 221.600,161.600 222.618,161.600 223.171 C 161.600 223.407,161.330 223.600,161.000 223.600 C 160.670 223.600,160.400 223.870,160.400 224.200 C 160.400 224.530,160.220 224.800,160.000 224.800 C 159.780 224.800,159.600 225.141,159.600 225.557 C 159.600 225.974,159.330 226.418,159.000 226.545 C 158.670 226.671,158.400 227.141,158.400 227.587 C 158.400 228.034,158.220 228.400,158.000 228.400 C 157.780 228.400,157.600 228.831,157.600 229.357 C 157.600 229.884,157.330 230.418,157.000 230.545 C 156.590 230.702,156.400 231.343,156.400 232.564 C 156.400 233.548,156.220 234.464,156.000 234.600 C 155.771 234.741,155.600 236.796,155.600 239.400 C 155.600 242.004,155.771 244.059,156.000 244.200 C 156.220 244.336,156.400 245.072,156.400 245.836 C 156.400 246.702,156.626 247.312,157.000 247.455 C 157.370 247.597,157.600 248.205,157.600 249.043 C 157.600 249.789,157.780 250.400,158.000 250.400 C 158.220 250.400,158.400 250.766,158.400 251.213 C 158.400 251.659,158.670 252.129,159.000 252.255 C 159.330 252.382,159.600 252.659,159.600 252.871 C 159.600 253.390,160.638 254.400,161.171 254.400 C 161.407 254.400,161.600 254.850,161.600 255.400 C 161.600 255.950,161.793 256.400,162.029 256.400 C 162.264 256.400,162.708 256.625,163.015 256.900 C 164.338 258.087,164.791 258.400,165.183 258.400 C 165.412 258.400,165.600 258.670,165.600 259.000 C 165.600 259.330,165.870 259.600,166.200 259.600 C 166.530 259.600,166.800 259.780,166.800 260.000 C 166.800 260.220,167.141 260.400,167.557 260.400 C 167.974 260.400,168.418 260.670,168.545 261.000 C 168.688 261.374,169.298 261.600,170.164 261.600 C 170.928 261.600,171.664 261.780,171.800 262.000 C 172.143 262.554,352.400 262.554,352.400 262.000 C 352.400 261.780,353.120 261.600,354.000 261.600 C 355.156 261.600,355.600 261.433,355.600 261.000 C 355.600 260.627,355.978 260.400,356.600 260.400 C 357.150 260.400,357.600 260.220,357.600 260.000 C 357.600 259.780,357.935 259.600,358.344 259.600 C 358.753 259.600,359.426 259.150,359.839 258.600 C 360.252 258.050,360.817 257.600,361.095 257.600 C 361.373 257.600,361.600 257.407,361.600 257.171 C 361.600 256.618,362.618 255.600,363.171 255.600 C 363.407 255.600,363.600 255.373,363.600 255.095 C 363.600 254.817,364.050 254.252,364.600 253.839 C 365.150 253.426,365.600 252.753,365.600 252.344 C 365.600 251.935,365.780 251.600,366.000 251.600 C 366.220 251.600,366.400 251.169,366.400 250.643 C 366.400 250.116,366.670 249.582,367.000 249.455 C 367.377 249.311,367.600 248.699,367.600 247.813 C 367.600 247.036,367.780 246.400,368.000 246.400 C 368.252 246.400,368.400 243.667,368.400 239.000 C 368.400 234.333,368.252 231.600,368.000 231.600 C 367.780 231.600,367.600 231.150,367.600 230.600 C 367.600 229.978,367.373 229.600,367.000 229.600 C 366.627 229.600,366.400 229.222,366.400 228.600 C 366.400 228.050,366.220 227.600,366.000 227.600 C 365.780 227.600,365.600 227.150,365.600 226.600 C 365.600 225.978,365.373 225.600,365.000 225.600 C 364.670 225.600,364.400 225.330,364.400 225.000 C 364.400 224.670,364.220 224.400,364.000 224.400 C 363.780 224.400,363.600 224.093,363.600 223.717 C 363.600 222.970,360.903 220.420,360.100 220.408 C 359.825 220.403,359.600 220.220,359.600 220.000 C 359.600 219.780,359.330 219.600,359.000 219.600 C 358.670 219.600,358.400 219.330,358.400 219.000 C 358.400 218.627,358.022 218.400,357.400 218.400 C 356.850 218.400,356.400 218.220,356.400 218.000 C 356.400 217.780,355.789 217.600,355.043 217.600 C 354.205 217.600,353.597 217.370,353.455 217.000 C 353.286 216.558,352.588 216.400,350.813 216.400 C 349.471 216.400,348.400 216.222,348.400 216.000 C 348.400 215.735,319.467 215.600,262.400 215.600 C 205.333 215.600,176.400 215.735,176.400 216.000 " stroke="none" fill="#040404" fill-rule="evenodd"></path><path id="path1" d="" stroke="none" fill="#0c0c0c" fill-rule="evenodd"></path><path id="path2" d="" stroke="none" fill="#080404" fill-rule="evenodd"></path><path id="path3" d="" stroke="none" fill="#040c08" fill-rule="evenodd"></path><path id="path4" d="" stroke="none" fill="#04040c" fill-rule="evenodd"></path><path id="path5" d="" stroke="none" fill="#080404" fill-rule="evenodd"></path><path id="path6" d="" stroke="none" fill="#080404" fill-rule="evenodd"></path><path id="path7" d="" stroke="none" fill="#080404" fill-rule="evenodd"></path><path id="path8" d="" stroke="none" fill="#080404" fill-rule="evenodd"></path></g></svg>