<svg id="svg" version="1.1" xmlns="http://www.w3.org/2000/svg" xmlns:xlink="http://www.w3.org/1999/xlink" width="400" height="409.5238095238095" viewBox="0, 0, 400,409.5238095238095"><g id="svgg"><path id="path0" d="M192.611 0.783 C 192.481 0.993,192.108 1.063,191.782 0.938 C 191.456 0.813,190.967 0.895,190.695 1.120 C 190.423 1.346,188.400 1.574,186.200 1.629 C 184.000 1.683,181.997 1.882,181.749 2.072 C 181.501 2.262,180.197 2.433,178.852 2.451 C 177.506 2.470,176.505 2.647,176.627 2.843 C 176.748 3.039,176.162 3.215,175.324 3.232 C 172.301 3.297,171.453 3.441,171.295 3.916 C 171.201 4.196,170.398 4.400,169.390 4.400 C 168.432 4.400,167.536 4.580,167.400 4.800 C 167.264 5.020,166.375 5.200,165.425 5.200 C 164.435 5.200,163.500 5.438,163.234 5.759 C 162.979 6.066,162.444 6.232,162.045 6.128 C 161.646 6.023,161.067 6.179,160.760 6.474 C 160.452 6.769,159.570 7.069,158.800 7.139 C 158.030 7.210,157.229 7.432,157.020 7.634 C 156.811 7.835,156.046 8.000,155.320 8.000 C 154.477 8.000,154.036 8.181,154.100 8.500 C 154.161 8.805,153.656 9.052,152.803 9.133 C 152.035 9.205,151.312 9.419,151.196 9.606 C 151.080 9.794,150.538 10.013,149.993 10.092 C 149.447 10.171,148.640 10.429,148.200 10.664 C 147.760 10.899,147.175 11.011,146.900 10.913 C 146.625 10.814,146.400 11.018,146.400 11.367 C 146.400 11.770,146.049 12.000,145.433 12.000 C 144.902 12.000,144.407 12.174,144.333 12.387 C 144.260 12.600,143.615 12.819,142.900 12.872 C 142.157 12.928,141.600 13.191,141.600 13.485 C 141.600 13.805,141.081 14.000,140.233 14.000 C 139.482 14.000,138.807 14.164,138.733 14.363 C 138.660 14.563,138.240 14.788,137.800 14.863 C 137.360 14.939,136.760 15.227,136.468 15.504 C 136.175 15.781,135.770 15.905,135.568 15.780 C 135.365 15.655,135.200 15.833,135.200 16.176 C 135.200 16.722,134.197 17.033,133.070 16.837 C 132.889 16.806,132.855 16.965,132.994 17.190 C 133.211 17.542,132.697 17.695,131.736 17.564 C 131.591 17.544,131.310 17.818,131.111 18.173 C 130.913 18.527,130.602 18.725,130.421 18.613 C 130.239 18.501,129.868 18.677,129.596 19.004 C 129.324 19.332,128.777 19.600,128.380 19.600 C 127.983 19.600,127.304 20.050,126.871 20.600 C 126.439 21.150,125.706 21.600,125.242 21.600 C 124.779 21.600,124.400 21.780,124.400 22.000 C 124.400 22.220,124.053 22.400,123.629 22.400 C 123.205 22.400,122.504 22.850,122.071 23.400 C 121.639 23.950,121.083 24.400,120.837 24.400 C 120.200 24.400,118.659 25.307,118.275 25.908 C 118.097 26.188,117.781 26.312,117.573 26.183 C 117.365 26.054,117.086 26.231,116.954 26.575 C 116.822 26.919,116.419 27.206,116.057 27.213 C 115.228 27.229,114.000 28.143,114.000 28.744 C 114.000 28.995,113.674 29.200,113.275 29.200 C 112.877 29.200,112.115 29.605,111.583 30.100 C 111.051 30.595,110.477 30.955,110.308 30.900 C 110.138 30.845,110.000 31.070,110.000 31.400 C 110.000 31.754,109.631 32.003,109.100 32.006 C 108.372 32.011,108.315 32.086,108.800 32.400 C 109.266 32.701,109.149 32.789,108.276 32.794 C 107.658 32.797,107.244 32.948,107.356 33.129 C 107.564 33.465,106.233 34.800,105.690 34.800 C 105.525 34.800,105.052 35.250,104.639 35.800 C 104.226 36.350,103.543 36.800,103.120 36.800 C 102.698 36.800,102.464 36.980,102.600 37.200 C 102.736 37.420,102.681 37.600,102.478 37.600 C 102.275 37.600,101.194 38.500,100.077 39.600 C 98.959 40.700,97.849 41.600,97.610 41.600 C 97.371 41.600,97.072 41.869,96.946 42.198 C 96.819 42.526,96.527 42.679,96.296 42.536 C 96.043 42.379,95.996 42.470,96.178 42.765 C 96.371 43.076,96.176 43.333,95.645 43.472 C 95.185 43.593,94.908 43.850,95.028 44.045 C 95.149 44.240,94.967 44.400,94.624 44.400 C 94.281 44.400,94.000 44.670,94.000 45.000 C 94.000 45.330,93.775 45.608,93.500 45.617 C 93.225 45.626,92.311 46.528,91.468 47.621 C 90.625 48.713,89.766 49.502,89.558 49.374 C 89.350 49.246,89.230 49.379,89.290 49.670 C 89.351 49.962,89.162 50.151,88.870 50.090 C 88.575 50.029,88.460 50.173,88.611 50.417 C 88.763 50.664,88.517 50.949,88.045 51.072 C 87.585 51.193,87.295 51.431,87.401 51.602 C 87.507 51.773,86.875 52.631,85.997 53.509 C 85.118 54.387,84.400 55.307,84.400 55.553 C 84.400 55.799,84.119 56.000,83.776 56.000 C 83.433 56.000,83.264 56.180,83.400 56.400 C 83.536 56.620,83.356 56.800,83.000 56.800 C 82.644 56.800,82.455 56.965,82.580 57.168 C 82.705 57.370,82.536 57.807,82.204 58.139 C 81.872 58.471,81.600 58.836,81.600 58.949 C 81.600 59.063,80.655 60.097,79.500 61.247 C 78.345 62.397,77.670 63.182,78.000 62.992 C 78.744 62.563,77.908 63.730,76.601 64.944 C 76.160 65.352,75.845 65.847,75.900 66.044 C 75.955 66.240,75.809 66.400,75.576 66.400 C 75.343 66.400,75.264 66.580,75.400 66.800 C 75.536 67.020,75.457 67.200,75.224 67.200 C 74.991 67.200,74.800 67.481,74.800 67.824 C 74.800 68.167,74.620 68.336,74.400 68.200 C 74.180 68.064,74.000 68.343,74.000 68.819 C 74.000 69.295,73.550 70.039,73.000 70.471 C 72.450 70.904,72.000 71.605,72.000 72.029 C 72.000 72.453,71.832 72.800,71.627 72.800 C 71.422 72.800,71.139 73.163,70.998 73.606 C 70.857 74.049,70.548 74.291,70.309 74.144 C 70.063 73.992,69.991 74.062,70.142 74.306 C 70.288 74.542,70.136 75.007,69.804 75.339 C 69.472 75.671,69.200 76.226,69.200 76.571 C 69.200 76.917,68.919 77.200,68.576 77.200 C 68.233 77.200,68.051 77.360,68.172 77.555 C 68.293 77.750,68.123 78.132,67.796 78.404 C 67.468 78.676,67.200 79.149,67.200 79.457 C 67.200 79.764,66.750 80.729,66.200 81.600 C 65.650 82.471,65.200 83.458,65.200 83.792 C 65.200 84.126,65.020 84.400,64.800 84.400 C 64.580 84.400,64.400 84.850,64.400 85.400 C 64.400 85.977,64.193 86.358,63.909 86.300 C 63.640 86.245,63.357 86.605,63.282 87.100 C 63.206 87.595,62.977 88.000,62.772 88.000 C 62.567 88.000,62.400 88.540,62.400 89.200 C 62.400 89.860,62.220 90.400,62.000 90.400 C 61.780 90.400,61.600 90.741,61.600 91.157 C 61.600 91.574,61.330 92.018,61.000 92.145 C 60.649 92.279,60.400 92.879,60.400 93.587 C 60.400 94.254,60.220 94.800,60.000 94.800 C 59.780 94.800,59.600 95.231,59.600 95.757 C 59.600 96.284,59.333 96.817,59.007 96.942 C 58.680 97.067,58.509 97.418,58.625 97.721 C 58.741 98.024,58.558 98.503,58.218 98.785 C 57.878 99.067,57.600 99.715,57.600 100.225 C 57.600 100.735,57.420 101.264,57.200 101.400 C 56.980 101.536,56.800 102.267,56.800 103.024 C 56.800 103.980,56.617 104.400,56.200 104.400 C 55.783 104.400,55.600 104.820,55.600 105.776 C 55.600 106.533,55.420 107.264,55.200 107.400 C 54.980 107.536,54.800 108.166,54.800 108.800 C 54.800 109.434,54.620 110.064,54.400 110.200 C 54.180 110.336,54.000 110.899,54.000 111.452 C 54.000 112.005,53.730 112.727,53.400 113.057 C 53.070 113.387,52.800 114.354,52.800 115.205 C 52.800 116.056,52.620 116.864,52.400 117.000 C 52.180 117.136,52.000 117.942,52.000 118.790 C 52.000 119.639,51.803 120.399,51.562 120.479 C 51.198 120.601,50.957 122.010,50.703 125.500 C 50.683 125.775,50.517 126.000,50.333 126.000 C 50.150 126.000,50.000 127.451,50.000 129.224 C 50.000 131.271,49.854 132.357,49.600 132.200 C 49.343 132.041,49.200 133.518,49.200 136.343 C 49.200 139.500,49.060 140.780,48.700 140.900 C 47.912 141.162,47.844 162.000,48.632 162.000 C 49.089 162.000,49.212 162.961,49.261 166.900 C 49.333 172.714,49.330 172.663,49.705 173.038 C 49.867 173.201,50.000 174.439,50.000 175.790 C 50.000 177.209,50.226 178.556,50.535 178.978 C 50.845 179.402,51.004 180.360,50.914 181.259 C 50.798 182.423,50.922 182.872,51.413 183.060 C 51.937 183.261,51.961 183.379,51.534 183.650 C 51.134 183.903,51.126 183.989,51.500 183.994 C 51.824 183.998,52.000 184.625,52.000 185.776 C 52.000 186.753,52.180 187.664,52.400 187.800 C 52.620 187.936,52.800 188.762,52.800 189.636 C 52.800 190.680,53.006 191.304,53.400 191.455 C 53.770 191.597,54.000 192.205,54.000 193.043 C 54.000 193.789,54.180 194.400,54.400 194.400 C 54.620 194.400,54.800 195.109,54.800 195.976 C 54.800 196.843,54.966 197.655,55.169 197.781 C 55.372 197.906,55.657 198.547,55.801 199.205 C 55.945 199.862,56.229 200.400,56.432 200.400 C 56.634 200.400,56.800 201.030,56.800 201.800 C 56.800 202.570,56.980 203.200,57.200 203.200 C 57.420 203.200,57.600 203.650,57.600 204.200 C 57.600 204.750,57.791 205.200,58.024 205.200 C 58.257 205.200,58.344 205.368,58.217 205.572 C 58.091 205.777,58.162 206.053,58.376 206.185 C 58.590 206.317,58.673 206.667,58.560 206.961 C 58.447 207.256,58.634 207.604,58.977 207.736 C 59.381 207.891,59.600 208.480,59.600 209.411 C 59.600 210.267,59.762 210.747,60.000 210.600 C 60.234 210.456,60.400 210.867,60.400 211.589 C 60.400 212.319,60.646 212.919,61.000 213.055 C 61.330 213.182,61.600 213.716,61.600 214.243 C 61.600 214.769,61.780 215.200,62.000 215.200 C 62.220 215.200,62.400 215.661,62.400 216.224 C 62.400 216.804,62.573 217.140,62.800 217.000 C 63.025 216.861,63.200 217.182,63.200 217.734 C 63.200 218.273,63.470 218.818,63.800 218.945 C 64.130 219.071,64.400 219.631,64.400 220.187 C 64.400 220.744,64.580 221.200,64.800 221.200 C 65.020 221.200,65.200 221.538,65.200 221.951 C 65.200 222.364,65.470 222.926,65.800 223.200 C 66.130 223.474,66.400 223.946,66.400 224.249 C 66.400 224.552,66.552 224.800,66.737 224.800 C 66.922 224.800,67.413 225.430,67.828 226.200 C 68.243 226.970,68.721 227.600,68.891 227.600 C 69.061 227.600,69.200 227.834,69.200 228.120 C 69.200 228.856,70.141 230.793,70.500 230.797 C 70.665 230.799,70.800 231.042,70.800 231.339 C 70.800 231.635,71.156 232.288,71.592 232.790 C 72.027 233.292,72.284 233.864,72.162 234.062 C 72.040 234.259,72.179 234.370,72.470 234.310 C 72.763 234.249,72.975 234.511,72.945 234.896 C 72.915 235.278,73.018 235.513,73.174 235.416 C 73.548 235.185,74.800 236.663,74.800 237.335 C 74.800 237.624,75.250 238.283,75.800 238.800 C 76.350 239.317,76.800 240.028,76.800 240.381 C 76.800 240.735,77.160 241.283,77.600 241.600 C 78.040 241.917,78.400 242.379,78.400 242.626 C 78.400 242.873,78.850 243.599,79.400 244.238 C 79.949 244.877,80.399 245.535,80.400 245.700 C 80.400 245.865,80.670 246.000,81.000 246.000 C 81.330 246.000,81.600 246.251,81.600 246.558 C 81.600 246.865,82.410 247.974,83.400 249.022 C 84.390 250.070,85.200 251.079,85.200 251.264 C 85.200 251.449,85.470 251.600,85.800 251.600 C 86.130 251.600,86.400 251.881,86.400 252.224 C 86.400 252.567,86.561 252.748,86.757 252.626 C 86.954 252.505,87.227 252.854,87.365 253.403 C 87.503 253.951,87.899 254.400,88.245 254.400 C 88.591 254.400,88.969 254.758,89.083 255.196 C 89.197 255.633,89.455 255.890,89.655 255.766 C 89.856 255.642,89.994 255.689,89.963 255.870 C 89.819 256.699,90.072 257.104,91.000 257.527 C 91.550 257.778,92.000 258.180,92.000 258.420 C 92.000 258.660,92.270 259.127,92.600 259.457 C 92.930 259.787,93.200 259.920,93.200 259.751 C 93.200 259.583,93.676 260.020,94.258 260.723 C 94.840 261.425,95.571 262.000,95.882 262.000 C 96.193 262.000,96.336 262.180,96.200 262.400 C 96.064 262.620,96.128 262.800,96.342 262.800 C 96.872 262.800,99.393 265.283,99.715 266.122 C 99.858 266.495,100.261 266.800,100.611 266.800 C 100.961 266.800,101.148 266.961,101.026 267.158 C 100.904 267.355,101.085 267.624,101.428 267.755 C 101.770 267.887,101.968 268.131,101.867 268.297 C 101.667 268.628,102.901 269.926,103.106 269.600 C 103.176 269.490,103.603 269.985,104.055 270.700 C 104.508 271.415,104.746 272.000,104.583 272.000 C 104.421 272.000,104.943 272.618,105.744 273.373 C 106.545 274.128,107.200 274.938,107.200 275.173 C 107.200 275.408,107.380 275.600,107.600 275.600 C 107.820 275.600,108.000 275.954,108.000 276.387 C 108.000 276.923,108.192 277.101,108.600 276.945 C 109.041 276.775,109.200 276.997,109.200 277.781 C 109.200 278.390,109.372 278.741,109.600 278.600 C 109.820 278.464,110.000 278.606,110.000 278.915 C 110.000 279.735,111.196 282.000,111.629 282.000 C 111.833 282.000,112.000 282.373,112.000 282.829 C 112.000 283.284,112.272 283.929,112.604 284.261 C 112.936 284.593,113.105 285.030,112.980 285.232 C 112.855 285.435,113.033 285.600,113.376 285.600 C 113.803 285.600,114.000 285.980,114.000 286.800 C 114.000 287.460,114.180 288.000,114.400 288.000 C 114.620 288.000,114.800 288.360,114.800 288.800 C 114.800 289.240,114.980 289.600,115.200 289.600 C 115.420 289.600,115.600 290.146,115.600 290.813 C 115.600 291.521,115.849 292.121,116.200 292.255 C 116.580 292.401,116.802 293.021,116.806 293.943 C 116.811 295.031,116.910 295.248,117.200 294.800 C 117.481 294.365,117.589 294.714,117.594 296.067 C 117.597 297.128,117.801 298.000,118.067 298.089 C 118.323 298.174,118.533 298.812,118.533 299.505 C 118.533 300.198,118.773 300.858,119.067 300.970 C 119.421 301.106,119.600 301.909,119.600 303.364 C 119.600 304.568,119.780 305.664,120.000 305.800 C 120.220 305.936,120.400 307.577,120.400 309.447 C 120.400 311.941,120.525 312.770,120.868 312.558 C 121.183 312.364,121.252 312.487,121.081 312.934 C 120.929 313.330,121.023 313.602,121.313 313.606 C 121.654 313.610,121.638 313.715,121.257 313.956 C 120.879 314.196,120.849 314.383,121.157 314.574 C 121.441 314.749,121.600 316.557,121.600 319.600 C 121.600 322.337,121.770 324.458,122.000 324.600 C 122.220 324.736,122.400 325.287,122.400 325.824 C 122.400 326.361,122.580 326.800,122.800 326.800 C 123.020 326.800,123.200 327.070,123.200 327.400 C 123.200 327.730,123.470 328.000,123.800 328.000 C 124.133 328.000,124.400 328.356,124.400 328.800 C 124.400 329.240,124.580 329.600,124.800 329.600 C 125.020 329.600,125.200 329.870,125.200 330.200 C 125.200 330.530,125.392 330.800,125.627 330.800 C 125.861 330.800,126.707 331.417,127.506 332.170 C 128.320 332.939,129.757 333.758,130.779 334.036 C 131.781 334.309,132.953 334.771,133.384 335.063 C 134.432 335.771,265.415 335.851,266.268 335.144 C 266.560 334.901,266.803 334.859,266.806 335.051 C 266.809 335.243,266.952 335.181,267.122 334.913 C 267.292 334.645,268.009 334.382,268.716 334.328 C 269.422 334.274,270.000 334.088,270.000 333.915 C 270.000 333.742,270.335 333.600,270.744 333.600 C 271.153 333.600,271.826 333.150,272.239 332.600 C 272.652 332.050,273.140 331.600,273.324 331.600 C 273.840 331.600,274.799 330.518,274.806 329.929 C 274.811 329.538,274.914 329.557,275.200 330.000 C 275.514 330.485,275.589 330.428,275.594 329.700 C 275.597 329.205,275.759 328.800,275.953 328.800 C 276.148 328.800,276.406 328.422,276.526 327.960 C 276.647 327.497,276.938 327.238,277.173 327.383 C 277.432 327.543,277.600 327.254,277.600 326.647 C 277.600 326.097,277.780 325.536,278.000 325.400 C 278.220 325.264,278.400 324.443,278.400 323.576 C 278.400 322.709,278.588 322.000,278.817 322.000 C 279.083 322.000,279.172 320.953,279.063 319.100 C 278.952 317.223,278.992 316.764,279.176 317.800 C 279.372 318.910,279.531 317.501,279.694 313.200 C 279.958 306.258,280.294 303.236,280.886 302.507 C 281.106 302.236,281.377 301.336,281.487 300.507 C 281.598 299.678,281.808 298.910,281.953 298.800 C 282.098 298.690,282.275 297.970,282.346 297.200 C 282.416 296.430,282.637 295.740,282.837 295.667 C 283.037 295.593,283.200 295.113,283.200 294.600 C 283.200 294.087,283.390 293.603,283.622 293.526 C 284.037 293.388,284.309 292.496,284.369 291.076 C 284.386 290.678,284.580 290.464,284.800 290.600 C 285.026 290.739,285.200 290.415,285.200 289.857 C 285.200 289.312,285.374 288.807,285.587 288.733 C 285.800 288.660,286.018 288.027,286.070 287.328 C 286.123 286.628,286.296 286.136,286.454 286.233 C 286.613 286.331,286.857 286.049,286.998 285.606 C 287.139 285.163,287.452 284.800,287.694 284.800 C 287.935 284.800,288.018 284.685,287.877 284.544 C 287.651 284.318,288.187 283.028,289.268 281.200 C 289.464 280.870,289.729 280.285,289.858 279.900 C 289.988 279.515,290.252 279.200,290.447 279.200 C 290.641 279.200,290.800 278.750,290.800 278.200 C 290.800 277.650,290.993 277.200,291.229 277.200 C 291.684 277.200,292.800 276.219,292.800 275.819 C 292.800 275.289,295.717 271.407,296.046 271.500 C 296.241 271.555,296.400 271.330,296.400 271.000 C 296.400 270.670,296.591 270.400,296.824 270.400 C 297.057 270.400,297.156 270.253,297.045 270.073 C 296.934 269.893,297.193 269.493,297.621 269.185 C 298.050 268.876,298.400 268.393,298.400 268.112 C 298.400 267.830,298.587 267.600,298.816 267.600 C 299.278 267.600,302.535 264.404,302.084 264.393 C 301.928 264.390,302.385 264.012,303.100 263.554 C 303.814 263.097,304.299 262.560,304.176 262.361 C 304.053 262.162,304.131 262.000,304.348 262.000 C 304.844 262.000,312.800 254.185,312.800 253.697 C 312.800 253.500,313.430 252.814,314.200 252.172 C 314.970 251.530,315.600 250.688,315.600 250.302 C 315.600 249.916,315.793 249.600,316.029 249.600 C 316.593 249.600,317.600 248.578,317.600 248.005 C 317.600 247.756,317.760 247.651,317.955 247.772 C 318.150 247.892,318.407 247.615,318.528 247.155 C 318.648 246.696,318.902 246.416,319.093 246.534 C 319.284 246.652,319.669 246.381,319.949 245.932 C 320.368 245.262,320.365 245.173,319.930 245.435 C 319.242 245.848,320.384 244.338,321.108 243.875 C 321.388 243.697,321.514 243.384,321.388 243.180 C 321.262 242.976,321.438 242.916,321.779 243.047 C 322.223 243.217,322.400 243.038,322.400 242.419 C 322.400 241.943,322.580 241.664,322.800 241.800 C 323.020 241.936,323.200 241.758,323.200 241.405 C 323.200 241.051,323.676 240.320,324.258 239.781 C 324.841 239.241,325.188 238.800,325.030 238.800 C 324.872 238.800,325.026 238.517,325.371 238.171 C 325.717 237.826,326.000 237.286,326.000 236.971 C 326.000 236.657,326.281 236.400,326.624 236.400 C 326.967 236.400,327.149 236.240,327.028 236.045 C 326.907 235.850,327.077 235.468,327.404 235.196 C 327.732 234.924,328.000 234.353,328.000 233.927 C 328.000 233.501,328.167 233.256,328.371 233.382 C 328.575 233.508,328.866 233.204,329.017 232.706 C 329.168 232.208,329.676 231.366,330.146 230.835 C 330.616 230.305,330.756 230.012,330.459 230.185 C 330.098 230.394,330.146 230.148,330.605 229.449 C 330.983 228.872,331.451 228.400,331.646 228.400 C 331.841 228.400,332.000 228.122,332.000 227.783 C 332.000 227.444,332.354 226.787,332.786 226.323 C 333.219 225.859,333.487 225.341,333.382 225.172 C 333.278 225.003,333.502 224.555,333.881 224.176 C 334.260 223.797,334.612 223.201,334.663 222.851 C 334.714 222.501,334.946 222.151,335.178 222.074 C 335.410 221.997,335.600 221.603,335.600 221.200 C 335.600 220.797,335.790 220.403,336.022 220.326 C 336.254 220.249,336.487 219.890,336.540 219.530 C 336.629 218.920,337.746 216.429,339.046 213.938 C 339.351 213.354,339.600 212.589,339.600 212.238 C 339.600 211.887,339.780 211.600,340.000 211.600 C 340.220 211.600,340.400 211.227,340.400 210.771 C 340.400 210.316,340.670 209.673,341.000 209.343 C 341.330 209.013,341.600 208.306,341.600 207.771 C 341.600 207.237,341.780 206.800,342.000 206.800 C 342.220 206.800,342.400 206.350,342.400 205.800 C 342.400 205.250,342.580 204.800,342.800 204.800 C 343.020 204.800,343.200 204.189,343.200 203.443 C 343.200 202.696,343.429 201.998,343.709 201.890 C 343.989 201.783,344.260 201.179,344.312 200.548 C 344.364 199.916,344.585 199.340,344.803 199.267 C 345.022 199.193,345.200 198.529,345.200 197.790 C 345.200 197.052,345.380 196.336,345.600 196.200 C 345.820 196.064,346.000 195.438,346.000 194.810 C 346.000 194.181,346.199 193.600,346.443 193.519 C 346.686 193.438,346.974 192.568,347.082 191.586 C 347.190 190.604,347.441 189.629,347.639 189.420 C 347.838 189.211,348.000 188.356,348.000 187.520 C 348.000 186.684,348.191 186.000,348.424 186.000 C 348.657 186.000,348.744 185.832,348.617 185.628 C 348.491 185.423,348.552 185.153,348.753 185.029 C 348.955 184.904,349.120 184.167,349.120 183.390 C 349.120 182.614,349.291 181.758,349.500 181.489 C 349.708 181.220,349.917 180.016,349.963 178.812 C 350.010 177.609,350.195 176.439,350.374 176.212 C 350.554 175.986,350.734 174.274,350.773 172.409 C 350.819 170.294,351.025 168.905,351.323 168.716 C 351.662 168.500,351.627 168.407,351.200 168.394 C 350.722 168.379,350.740 168.294,351.290 167.974 C 352.112 167.495,352.385 136.400,351.567 136.400 C 351.339 136.400,351.255 136.235,351.379 136.034 C 351.503 135.833,351.379 135.577,351.102 135.466 C 350.728 135.315,350.740 135.255,351.149 135.232 C 351.550 135.209,351.583 135.061,351.272 134.687 C 351.038 134.405,350.813 132.740,350.772 130.987 C 350.731 129.234,350.559 127.620,350.389 127.400 C 350.220 127.180,350.018 126.010,349.940 124.800 C 349.863 123.590,349.665 122.499,349.500 122.376 C 349.335 122.254,349.170 121.391,349.134 120.459 C 349.097 119.528,348.914 118.671,348.727 118.555 C 348.540 118.439,348.491 118.177,348.617 117.972 C 348.744 117.768,348.657 117.600,348.424 117.600 C 348.191 117.600,348.000 117.087,348.000 116.460 C 348.000 115.833,347.820 114.798,347.600 114.160 C 347.380 113.522,347.142 112.370,347.072 111.600 C 346.998 110.786,346.747 110.242,346.472 110.300 C 346.170 110.364,346.000 109.814,346.000 108.776 C 346.000 107.796,345.842 107.251,345.600 107.400 C 345.359 107.549,345.200 107.015,345.200 106.057 C 345.200 105.182,345.009 104.403,344.776 104.325 C 344.543 104.248,344.335 103.611,344.316 102.912 C 344.296 102.212,344.037 101.546,343.740 101.432 C 343.443 101.318,343.200 100.679,343.200 100.013 C 343.200 99.346,343.020 98.800,342.800 98.800 C 342.580 98.800,342.394 98.485,342.387 98.100 C 342.380 97.715,342.123 97.068,341.815 96.661 C 341.507 96.255,341.343 95.693,341.450 95.413 C 341.558 95.132,341.391 94.648,341.080 94.337 C 340.598 93.855,339.897 92.132,339.346 90.075 C 339.269 89.786,339.063 89.638,338.888 89.746 C 338.713 89.854,338.530 89.468,338.483 88.889 C 338.435 88.309,338.216 87.656,337.998 87.438 C 337.779 87.219,337.600 86.626,337.600 86.120 C 337.600 85.614,337.420 85.200,337.200 85.200 C 336.980 85.200,336.800 84.849,336.800 84.420 C 336.800 83.991,336.567 83.496,336.282 83.320 C 335.578 82.884,334.401 80.323,334.690 79.854 C 334.818 79.646,334.714 79.606,334.457 79.765 C 334.153 79.952,333.903 79.613,333.739 78.794 C 333.561 77.906,333.388 77.692,333.150 78.068 C 332.906 78.452,332.811 78.359,332.806 77.733 C 332.803 77.257,332.612 76.804,332.382 76.727 C 332.152 76.651,331.934 76.186,331.897 75.694 C 331.860 75.202,331.598 74.800,331.315 74.800 C 330.874 74.800,330.761 74.487,330.809 73.391 C 330.814 73.276,330.364 72.728,329.809 72.173 C 329.254 71.618,328.800 70.968,328.800 70.729 C 328.800 70.490,328.430 69.973,327.978 69.581 C 327.525 69.188,327.127 68.492,327.093 68.034 C 327.058 67.575,326.798 67.200,326.515 67.200 C 326.232 67.200,326.000 66.874,326.000 66.475 C 326.000 66.077,325.676 65.402,325.280 64.975 C 324.884 64.549,324.435 63.874,324.283 63.475 C 324.123 63.055,323.810 62.870,323.541 63.036 C 323.265 63.207,323.184 63.150,323.342 62.894 C 323.488 62.658,323.336 62.193,323.004 61.861 C 322.672 61.529,322.400 61.064,322.400 60.829 C 322.400 60.593,322.119 60.400,321.776 60.400 C 321.433 60.400,321.264 60.220,321.400 60.000 C 321.536 59.780,321.367 59.600,321.024 59.600 C 320.659 59.600,320.400 59.255,320.400 58.771 C 320.400 57.923,319.543 56.800,318.896 56.800 C 318.698 56.800,318.294 56.350,318.000 55.800 C 317.706 55.250,317.315 54.800,317.132 54.800 C 316.950 54.800,316.800 54.596,316.800 54.347 C 316.800 54.097,316.305 53.468,315.700 52.948 C 315.095 52.428,314.600 51.867,314.600 51.700 C 314.600 51.534,314.015 50.839,313.300 50.156 C 312.585 49.472,312.000 48.708,312.000 48.457 C 312.000 48.206,311.807 48.000,311.571 48.000 C 311.018 48.000,310.000 46.982,310.000 46.429 C 310.000 46.193,309.719 46.000,309.376 46.000 C 309.033 46.000,308.864 45.820,309.000 45.600 C 309.136 45.380,309.044 45.200,308.795 45.200 C 308.222 45.200,307.200 44.193,307.200 43.629 C 307.200 43.393,307.012 43.200,306.782 43.200 C 306.240 43.200,304.169 41.127,304.300 40.715 C 304.355 40.542,304.215 40.400,303.989 40.400 C 303.764 40.400,302.774 39.595,301.789 38.611 C 300.805 37.626,300.000 36.934,300.000 37.072 C 300.000 37.210,299.640 36.907,299.200 36.400 C 298.760 35.893,298.400 35.624,298.400 35.804 C 298.400 35.983,297.680 35.373,296.800 34.448 C 295.920 33.523,295.197 32.909,295.194 33.083 C 295.191 33.257,295.017 33.130,294.808 32.800 C 294.600 32.470,294.243 32.178,294.015 32.150 C 293.787 32.123,293.420 32.078,293.200 32.050 C 292.980 32.023,292.800 31.807,292.800 31.571 C 292.800 30.925,291.743 30.000,291.005 30.000 C 290.646 30.000,290.467 29.816,290.606 29.590 C 290.745 29.365,290.711 29.206,290.530 29.237 C 289.578 29.403,288.800 29.137,288.800 28.646 C 288.800 28.341,288.170 27.792,287.400 27.427 C 286.630 27.061,286.000 26.591,286.000 26.381 C 286.000 26.172,285.775 26.045,285.500 26.100 C 285.225 26.155,285.052 25.953,285.116 25.651 C 285.190 25.305,285.009 25.188,284.628 25.334 C 284.295 25.462,283.761 25.304,283.440 24.983 C 283.119 24.662,282.673 24.400,282.448 24.400 C 282.224 24.400,281.896 24.175,281.720 23.900 C 281.346 23.316,279.800 22.400,279.187 22.400 C 278.954 22.400,278.314 21.950,277.764 21.400 C 277.214 20.850,276.502 20.400,276.182 20.400 C 275.862 20.400,275.600 20.220,275.600 20.000 C 275.600 19.780,275.249 19.600,274.820 19.600 C 274.391 19.600,273.856 19.285,273.632 18.900 C 273.408 18.515,273.219 18.369,273.212 18.576 C 273.205 18.784,272.917 18.604,272.570 18.176 C 272.224 17.749,272.044 17.608,272.171 17.863 C 272.344 18.212,272.164 18.213,271.435 17.869 C 270.903 17.618,270.530 17.313,270.606 17.190 C 270.682 17.067,270.364 16.937,269.899 16.902 C 269.434 16.867,268.902 16.567,268.716 16.236 C 268.531 15.904,268.137 15.726,267.841 15.840 C 267.545 15.953,267.196 15.766,267.064 15.423 C 266.933 15.080,266.459 14.800,266.013 14.800 C 265.566 14.800,265.200 14.620,265.200 14.400 C 265.200 14.180,265.065 14.021,264.900 14.047 C 263.585 14.255,262.051 13.933,262.222 13.486 C 262.344 13.170,262.071 12.945,261.516 12.904 C 261.019 12.866,260.549 12.648,260.473 12.418 C 260.396 12.188,259.718 12.000,258.967 12.000 C 258.019 12.000,257.600 11.816,257.600 11.400 C 257.600 11.027,257.222 10.800,256.600 10.800 C 256.050 10.800,255.600 10.658,255.600 10.485 C 255.600 10.312,255.015 10.126,254.300 10.072 C 253.585 10.019,252.940 9.800,252.867 9.587 C 252.793 9.374,252.118 9.200,251.367 9.200 C 250.519 9.200,250.000 9.005,250.000 8.685 C 250.000 8.391,249.443 8.128,248.700 8.072 C 247.985 8.019,247.340 7.800,247.267 7.587 C 247.193 7.374,246.418 7.200,245.543 7.200 C 244.585 7.200,244.051 7.041,244.200 6.800 C 244.336 6.580,244.032 6.373,243.524 6.339 C 241.869 6.230,241.715 6.193,241.154 5.773 C 240.849 5.545,239.982 5.306,239.226 5.241 C 238.471 5.177,237.424 4.961,236.900 4.762 C 236.377 4.563,235.240 4.400,234.374 4.400 C 233.267 4.400,232.800 4.228,232.800 3.821 C 232.800 3.401,232.420 3.278,231.423 3.375 C 230.665 3.448,229.630 3.300,229.123 3.045 C 228.615 2.790,226.949 2.522,225.419 2.450 C 223.890 2.378,222.213 2.157,221.693 1.959 C 221.173 1.762,218.889 1.600,216.617 1.600 C 213.314 1.600,212.439 1.480,212.255 1.000 C 212.089 0.566,211.440 0.408,209.913 0.428 C 208.270 0.450,207.978 0.541,208.600 0.836 C 209.250 1.145,209.212 1.162,208.400 0.928 C 206.861 0.483,198.049 0.397,197.785 0.824 C 197.657 1.031,197.338 1.197,197.076 1.194 C 196.790 1.190,196.839 1.033,197.200 0.800 C 197.623 0.527,197.070 0.410,195.324 0.406 C 193.962 0.403,192.741 0.572,192.611 0.783 M259.698 40.702 L 263.800 44.804 263.874 52.642 C 263.914 56.953,264.051 60.584,264.177 60.710 C 264.303 60.837,266.969 60.924,270.101 60.905 C 276.898 60.863,275.540 60.181,282.636 67.194 C 290.359 74.827,289.600 73.118,289.600 82.880 L 289.600 91.182 293.300 94.256 C 295.335 95.946,297.223 97.643,297.495 98.026 C 297.865 98.545,298.017 102.773,298.095 114.661 L 298.200 130.600 301.512 130.800 L 304.823 131.000 311.020 137.234 L 317.216 143.467 317.108 171.330 L 317.000 199.193 314.296 201.896 C 311.633 204.560,311.556 204.603,309.096 204.800 L 306.600 205.000 306.400 213.499 L 306.200 221.997 300.120 228.065 L 294.039 234.133 291.320 234.366 L 288.600 234.600 288.492 242.247 L 288.383 249.894 286.021 252.147 L 283.659 254.400 278.272 254.400 C 271.913 254.400,272.400 253.922,272.400 260.165 L 272.400 264.665 269.443 267.532 L 266.485 270.400 260.443 270.400 L 254.400 270.400 254.400 272.998 L 254.400 275.596 248.622 281.398 L 242.845 287.200 232.090 287.200 L 221.335 287.200 215.467 281.379 L 209.600 275.558 209.600 229.393 L 209.600 183.228 208.700 182.766 C 201.274 178.954,203.671 168.400,211.963 168.400 C 219.647 168.400,222.474 178.670,215.800 182.340 C 215.140 182.703,214.468 183.180,214.306 183.400 C 214.144 183.620,214.009 204.110,214.006 228.934 L 214.000 274.067 218.327 278.434 L 222.654 282.800 232.034 282.800 L 241.414 282.800 245.487 278.700 C 250.344 273.810,250.333 273.835,250.035 268.000 L 249.800 263.400 238.667 263.200 C 228.235 263.013,227.499 262.951,226.967 262.224 C 226.199 261.172,226.242 260.921,227.387 259.776 L 228.375 258.789 241.287 258.894 L 254.200 259.000 254.400 262.400 L 254.600 265.800 259.770 265.912 L 264.941 266.025 266.470 264.531 L 268.000 263.038 268.000 258.027 L 268.000 253.017 264.709 249.708 L 261.418 246.400 251.569 246.400 L 241.721 246.400 235.360 240.206 L 229.000 234.012 224.631 234.006 C 219.881 233.999,218.800 233.583,218.800 231.761 C 218.800 230.043,220.136 229.600,225.315 229.600 C 231.156 229.600,230.518 229.249,237.741 236.444 L 243.683 242.361 253.617 242.481 L 263.550 242.600 267.519 246.500 L 271.488 250.400 276.575 250.400 L 281.662 250.400 282.831 249.231 L 284.000 248.062 284.000 239.277 C 284.000 229.102,283.521 230.015,288.867 230.005 L 291.934 230.000 296.967 225.153 L 302.000 220.306 302.000 212.553 L 302.000 204.800 298.433 204.800 C 293.061 204.800,293.600 206.326,293.600 191.110 L 293.600 177.906 292.047 176.353 C 290.543 174.849,290.407 174.800,287.736 174.800 C 284.678 174.800,283.200 174.119,283.200 172.709 C 283.200 170.867,284.232 170.400,288.305 170.400 L 292.085 170.400 295.043 173.268 L 298.000 176.135 298.000 188.080 C 298.000 197.270,298.115 200.068,298.500 200.211 C 298.775 200.313,301.070 200.459,303.600 200.535 C 308.817 200.691,310.089 200.361,311.719 198.424 L 312.800 197.139 312.800 171.086 L 312.800 145.034 307.700 139.992 L 302.600 134.949 300.300 135.112 L 298.000 135.274 298.000 139.615 L 298.000 143.955 291.727 150.178 L 285.454 156.400 281.191 156.400 L 276.927 156.400 272.264 161.098 L 267.600 165.797 267.600 179.027 L 267.600 192.258 270.951 195.529 L 274.302 198.800 277.841 198.800 L 281.380 198.800 284.090 201.489 L 286.800 204.179 286.794 210.389 C 286.787 217.384,286.491 218.519,284.610 218.734 C 282.649 218.959,282.400 218.151,282.400 211.564 L 282.400 205.680 280.960 204.240 L 279.520 202.800 275.860 202.792 L 272.200 202.785 261.945 192.592 L 251.689 182.400 245.206 182.400 C 234.921 182.400,235.533 181.260,235.685 200.119 L 235.800 214.400 244.800 223.204 L 253.800 232.007 257.133 231.903 C 261.750 231.760,262.800 230.696,262.800 226.161 L 262.800 223.134 255.600 215.868 L 248.400 208.602 248.400 200.501 C 248.400 192.076,248.667 190.800,250.426 190.800 C 252.295 190.800,252.400 191.241,252.400 199.080 L 252.400 206.531 259.600 213.800 L 266.800 221.069 266.800 226.343 L 266.800 231.617 264.609 233.809 L 262.417 236.000 257.109 235.996 L 251.800 235.991 241.700 225.950 L 231.600 215.909 231.600 199.423 L 231.600 182.938 233.887 180.669 L 236.175 178.400 244.995 178.400 L 253.814 178.400 258.000 182.600 C 260.302 184.910,262.414 186.800,262.693 186.800 C 263.090 186.800,263.200 184.353,263.200 175.471 L 263.200 164.143 269.044 158.271 L 274.888 152.400 279.144 152.399 L 283.400 152.398 288.504 147.318 L 293.607 142.238 293.504 121.819 L 293.400 101.400 279.916 101.200 L 266.433 101.000 264.616 99.217 L 262.800 97.433 262.800 89.375 L 262.800 81.316 264.976 79.258 L 267.152 77.200 270.522 77.200 C 275.154 77.200,277.228 78.780,275.338 80.869 C 274.804 81.458,274.071 81.600,271.554 81.600 C 266.900 81.600,266.800 81.762,266.800 89.275 C 266.800 97.464,265.759 96.800,278.587 96.800 C 289.842 96.800,289.757 96.824,286.775 94.428 L 285.200 93.162 285.200 84.514 L 285.200 75.866 279.919 70.533 L 274.638 65.200 267.362 65.200 C 258.651 65.200,259.600 66.407,259.600 55.325 L 259.600 46.715 256.732 43.757 L 253.865 40.800 236.861 40.800 L 219.858 40.800 216.929 43.729 L 214.000 46.658 214.000 53.955 C 214.000 61.958,213.810 62.800,212.009 62.800 C 209.812 62.800,209.600 61.942,209.600 53.031 L 209.600 45.040 213.912 40.728 L 218.224 36.416 236.910 36.508 L 255.596 36.600 259.698 40.702 M182.976 38.213 C 183.404 38.536,183.602 38.800,183.417 38.800 C 183.232 38.800,183.646 39.340,184.337 40.000 C 185.028 40.660,185.774 41.200,185.996 41.200 C 186.218 41.200,186.400 41.383,186.400 41.607 C 186.400 41.830,187.210 42.790,188.200 43.738 L 190.000 45.463 190.000 53.531 L 190.000 61.600 189.000 61.600 L 188.000 61.600 188.000 53.649 C 188.000 45.807,187.718 44.089,186.599 45.103 C 186.419 45.267,186.372 45.220,186.494 45.000 C 186.616 44.780,186.465 44.368,186.158 44.084 C 185.851 43.801,185.589 43.711,185.575 43.884 C 185.561 44.058,185.387 43.795,185.188 43.300 C 184.989 42.805,184.520 42.400,184.146 42.400 C 183.772 42.400,183.573 42.293,183.704 42.163 C 183.834 42.033,183.480 41.410,182.918 40.779 L 181.896 39.632 164.302 39.608 L 146.709 39.585 145.381 40.992 C 144.651 41.767,143.851 42.400,143.603 42.400 C 143.355 42.400,143.264 42.580,143.400 42.800 C 143.536 43.020,143.367 43.200,143.024 43.200 C 142.681 43.200,142.400 43.393,142.400 43.629 C 142.400 44.182,141.382 45.200,140.829 45.200 C 140.536 45.200,140.400 48.240,140.400 54.800 L 140.400 64.400 132.600 64.400 L 124.800 64.400 123.200 66.000 C 122.320 66.880,121.600 67.780,121.600 68.000 C 121.600 68.220,121.390 68.400,121.133 68.400 C 120.877 68.400,120.775 68.508,120.908 68.641 C 121.164 68.897,118.626 71.485,117.356 72.263 C 116.940 72.517,116.639 72.904,116.687 73.123 C 116.734 73.341,116.329 73.631,115.787 73.768 L 114.800 74.015 114.800 83.408 C 114.800 92.533,114.777 92.800,114.000 92.800 C 113.560 92.800,113.200 92.993,113.200 93.229 C 113.200 93.744,112.568 94.375,111.134 95.292 C 110.003 96.016,109.899 96.714,110.767 97.760 C 111.229 98.317,112.655 98.400,121.760 98.400 L 132.222 98.400 133.511 97.223 L 134.800 96.045 134.800 89.037 C 134.800 82.405,134.756 82.005,133.989 81.594 C 133.543 81.355,133.286 80.984,133.419 80.770 C 133.551 80.556,133.511 80.406,133.330 80.437 C 133.148 80.469,131.425 80.473,129.500 80.447 C 125.956 80.399,125.416 80.127,126.571 78.971 C 127.433 78.110,134.000 78.156,134.000 79.024 C 134.000 79.367,134.153 79.553,134.340 79.437 C 134.527 79.322,134.917 79.671,135.207 80.214 C 135.498 80.756,135.975 81.200,136.268 81.200 C 136.693 81.200,136.800 82.829,136.800 89.332 L 136.800 97.465 135.800 98.000 C 135.250 98.294,134.800 98.771,134.800 99.060 C 134.800 99.951,133.406 100.033,120.300 99.915 C 113.315 99.852,107.600 99.935,107.600 100.100 C 107.600 100.265,107.409 100.400,107.176 100.400 C 106.943 100.400,106.880 100.175,107.035 99.900 C 107.243 99.531,107.171 99.536,106.759 99.920 C 106.297 100.350,106.183 104.055,106.100 121.320 C 105.997 142.997,106.093 144.429,107.633 144.067 C 107.945 143.993,108.063 144.070,107.896 144.237 C 107.484 144.649,109.212 146.440,109.720 146.126 C 109.957 145.979,109.999 146.078,109.822 146.365 C 109.633 146.670,109.802 146.928,110.273 147.051 C 110.687 147.159,111.261 147.778,111.547 148.426 C 111.834 149.074,112.221 149.511,112.406 149.396 C 112.591 149.282,112.857 149.551,112.998 149.994 C 113.139 150.437,113.529 150.800,113.864 150.800 C 114.200 150.800,114.561 151.115,114.665 151.500 C 114.770 151.885,115.323 152.546,115.894 152.968 C 116.519 153.431,116.795 153.511,116.589 153.168 C 116.303 152.694,116.352 152.686,116.883 153.116 C 117.327 153.475,118.653 153.596,121.260 153.516 C 124.190 153.425,125.115 153.530,125.530 154.000 C 126.000 154.533,126.027 154.533,125.766 154.000 C 125.604 153.670,125.617 153.532,125.795 153.693 C 125.973 153.854,126.323 154.394,126.571 154.893 C 126.820 155.392,127.513 156.035,128.112 156.322 C 128.710 156.609,129.200 157.095,129.200 157.403 C 129.200 157.711,129.830 158.261,130.600 158.627 C 131.370 158.992,132.000 159.541,132.000 159.846 C 132.000 160.151,132.168 160.400,132.373 160.400 C 132.578 160.400,132.860 160.760,133.000 161.200 C 133.140 161.640,133.522 162.000,133.851 162.000 C 134.179 162.000,134.344 162.167,134.218 162.371 C 134.092 162.575,134.365 162.862,134.824 163.008 C 135.284 163.154,135.560 163.373,135.437 163.496 C 135.315 163.618,135.569 164.026,136.001 164.401 C 136.745 165.046,136.793 165.720,136.894 176.842 L 137.000 188.600 138.200 188.715 C 139.043 188.795,139.235 188.719,138.847 188.459 C 138.413 188.167,138.495 188.024,139.228 187.791 C 140.253 187.466,141.499 186.400,140.854 186.400 C 140.632 186.400,140.935 185.905,141.526 185.300 C 142.171 184.639,142.717 184.360,142.894 184.600 C 143.182 184.992,143.383 184.238,143.214 183.400 C 143.170 183.180,143.269 183.135,143.434 183.301 C 143.764 183.630,145.200 182.499,145.200 181.909 C 145.200 181.429,146.238 180.400,146.722 180.400 C 146.931 180.400,147.326 180.130,147.600 179.800 C 148.345 178.903,164.400 178.903,164.400 179.800 C 164.400 180.130,164.625 180.355,164.900 180.300 C 165.175 180.245,165.355 180.425,165.300 180.700 C 165.245 180.975,165.378 181.200,165.595 181.200 C 166.210 181.200,167.583 182.504,167.356 182.871 C 167.244 183.052,167.343 183.200,167.576 183.200 C 167.868 183.200,168.000 188.265,168.000 199.400 C 168.000 209.933,167.860 215.600,167.600 215.600 C 167.380 215.600,167.200 215.881,167.200 216.224 C 167.200 216.567,167.020 216.736,166.800 216.600 C 166.580 216.464,166.396 216.588,166.391 216.876 C 166.385 217.164,165.673 217.924,164.807 218.565 C 163.941 219.205,163.326 219.880,163.440 220.065 C 163.554 220.249,163.397 220.400,163.091 220.400 C 162.785 220.400,162.294 220.850,162.000 221.400 C 161.706 221.950,161.215 222.400,160.909 222.400 C 160.603 222.400,160.464 222.580,160.600 222.800 C 160.736 223.020,160.697 223.200,160.513 223.200 C 160.123 223.200,157.856 225.213,157.585 225.800 C 157.483 226.020,157.265 226.155,157.100 226.100 C 156.935 226.045,156.800 226.270,156.800 226.600 C 156.800 226.930,156.596 227.200,156.347 227.200 C 155.868 227.200,154.001 229.189,154.000 229.700 C 154.000 229.865,153.760 230.000,153.468 230.000 C 153.175 230.000,152.699 230.441,152.410 230.981 C 152.122 231.520,151.686 231.925,151.443 231.881 C 151.199 231.836,151.045 232.025,151.100 232.300 C 151.155 232.575,151.054 232.800,150.875 232.800 C 150.697 232.800,150.117 233.205,149.586 233.700 C 147.999 235.180,139.731 235.295,138.293 233.857 C 137.738 233.302,137.176 232.958,137.042 233.091 C 136.909 233.224,136.800 233.113,136.800 232.843 C 136.800 232.573,136.620 232.464,136.400 232.600 C 136.180 232.736,136.000 232.567,136.000 232.224 C 136.000 231.881,135.809 231.600,135.576 231.600 C 135.343 231.600,135.264 231.420,135.400 231.200 C 135.536 230.980,135.448 230.800,135.205 230.800 C 134.904 230.800,134.783 229.278,134.825 226.015 C 134.859 223.383,135.003 221.244,135.144 221.262 C 135.856 221.353,136.426 221.166,136.259 220.896 C 136.045 220.549,136.799 219.401,137.400 219.160 C 137.620 219.072,137.751 218.852,137.690 218.670 C 137.630 218.489,137.750 218.446,137.958 218.574 C 138.166 218.703,138.710 218.332,139.168 217.750 C 139.626 217.168,140.000 216.813,140.000 216.962 C 140.000 217.110,140.251 216.999,140.558 216.716 C 140.865 216.432,141.034 216.065,140.934 215.900 C 140.835 215.735,140.943 215.600,141.176 215.600 C 141.409 215.600,141.600 215.330,141.600 215.000 C 141.600 214.670,141.735 214.421,141.900 214.447 C 142.747 214.581,143.200 214.333,143.200 213.733 C 143.200 213.367,143.305 213.172,143.433 213.300 C 143.737 213.604,145.123 212.293,144.913 211.900 C 144.825 211.735,144.958 211.600,145.208 211.600 C 145.844 211.600,148.850 208.497,149.008 207.676 C 149.080 207.304,149.153 203.715,149.169 199.700 C 149.193 194.086,149.315 192.423,149.700 192.500 C 149.975 192.555,150.155 192.375,150.100 192.100 C 150.045 191.825,150.180 191.600,150.400 191.600 C 150.620 191.600,150.802 191.735,150.805 191.900 C 151.027 204.606,150.951 208.800,150.500 208.800 C 150.225 208.800,150.000 208.993,150.000 209.229 C 150.000 209.695,149.015 210.800,148.600 210.800 C 148.266 210.800,147.200 211.866,147.200 212.200 C 147.200 212.615,146.095 213.600,145.629 213.600 C 145.393 213.600,145.200 213.793,145.200 214.029 C 145.200 214.495,144.215 215.600,143.800 215.600 C 143.466 215.600,142.400 216.666,142.400 217.000 C 142.400 217.334,141.334 218.400,141.000 218.400 C 140.615 218.400,139.600 219.490,139.600 219.904 C 139.600 220.102,139.150 220.506,138.600 220.800 C 138.050 221.094,137.600 221.575,137.600 221.868 C 137.600 222.160,137.442 222.400,137.248 222.400 C 136.578 222.400,136.701 229.820,137.381 230.384 C 137.716 230.663,137.893 231.050,137.772 231.245 C 137.651 231.440,137.833 231.600,138.176 231.600 C 138.519 231.600,138.800 231.870,138.800 232.200 C 138.800 232.700,139.603 232.800,143.624 232.800 C 146.568 232.800,148.356 232.652,148.212 232.420 C 147.940 231.979,149.370 231.104,149.747 231.481 C 149.886 231.620,150.000 231.442,150.000 231.085 C 150.000 230.729,150.453 230.114,151.008 229.719 C 152.735 228.487,153.736 227.600,153.399 227.600 C 153.221 227.600,153.402 227.240,153.800 226.800 C 154.198 226.360,154.796 226.000,155.129 226.000 C 155.461 226.000,155.625 225.892,155.493 225.759 C 155.181 225.448,156.905 223.651,157.300 223.876 C 157.465 223.970,157.600 223.794,157.600 223.486 C 157.600 223.177,157.960 222.598,158.400 222.200 C 158.840 221.802,159.200 221.601,159.200 221.754 C 159.200 221.907,159.451 221.799,159.758 221.516 C 160.065 221.232,160.234 220.865,160.134 220.700 C 160.035 220.535,160.143 220.400,160.376 220.400 C 160.609 220.400,160.800 220.130,160.800 219.800 C 160.800 219.467,161.156 219.200,161.600 219.200 C 162.080 219.200,162.400 218.933,162.400 218.533 C 162.400 218.167,162.501 217.968,162.625 218.092 C 162.749 218.216,163.565 217.596,164.437 216.715 L 166.024 215.112 165.986 199.148 C 165.963 189.349,165.804 183.274,165.574 183.416 C 165.368 183.543,165.200 183.337,165.200 182.957 C 165.200 182.577,165.091 182.376,164.957 182.509 C 164.640 182.826,163.629 181.891,163.866 181.500 C 164.253 180.859,148.934 181.157,148.400 181.800 C 148.126 182.130,147.650 182.400,147.341 182.400 C 147.033 182.400,146.605 182.861,146.391 183.424 C 146.177 183.987,145.821 184.337,145.601 184.200 C 145.380 184.064,145.200 184.141,145.200 184.372 C 145.200 185.013,143.902 186.386,143.519 186.150 C 143.333 186.035,143.230 186.096,143.290 186.285 C 143.428 186.719,141.382 188.800,140.818 188.800 C 140.588 188.800,140.400 189.004,140.400 189.253 C 140.400 189.732,138.411 191.599,137.900 191.600 C 137.735 191.600,137.600 191.870,137.600 192.200 C 137.600 192.530,137.370 192.800,137.088 192.800 C 136.479 192.800,134.000 195.342,134.000 195.966 C 134.000 196.204,133.730 196.400,133.400 196.400 C 133.070 196.400,132.800 196.593,132.800 196.829 C 132.800 197.382,131.782 198.400,131.229 198.400 C 130.993 198.400,130.800 198.588,130.800 198.818 C 130.800 199.361,128.961 201.200,128.418 201.200 C 128.188 201.200,128.000 201.470,128.000 201.800 C 128.000 202.295,127.267 202.400,123.800 202.400 C 121.490 202.400,119.600 202.550,119.600 202.732 C 119.600 202.915,119.150 203.306,118.600 203.600 L 117.600 204.135 117.600 210.868 C 117.600 217.591,117.599 217.600,116.696 217.600 C 115.053 217.600,114.764 216.426,114.821 209.992 C 114.860 205.717,115.006 204.050,115.338 204.113 C 115.592 204.161,115.755 203.975,115.700 203.700 C 115.645 203.425,115.735 203.229,115.900 203.264 C 116.488 203.388,117.592 202.710,117.374 202.358 C 117.252 202.161,117.356 202.000,117.605 202.000 C 118.263 202.000,119.210 200.949,118.881 200.583 C 118.726 200.412,118.813 200.394,119.072 200.542 C 119.332 200.691,119.663 200.621,119.808 200.387 C 119.969 200.127,121.486 199.990,123.702 200.034 C 126.644 200.094,127.422 199.985,127.805 199.460 C 128.066 199.104,128.396 198.930,128.540 199.073 C 128.778 199.312,128.961 198.618,128.847 197.900 C 128.821 197.735,129.070 197.600,129.400 197.600 C 129.730 197.600,130.003 197.285,130.006 196.900 C 130.011 196.302,130.069 196.287,130.400 196.800 C 130.801 197.420,131.029 196.868,130.814 195.800 C 130.770 195.580,130.869 195.535,131.034 195.701 C 131.405 196.072,132.800 194.864,132.800 194.171 C 132.800 193.894,132.984 193.605,133.208 193.531 C 133.520 193.427,133.833 171.202,133.617 164.476 C 133.608 164.188,133.420 164.064,133.200 164.200 C 132.980 164.336,132.800 164.197,132.800 163.891 C 132.800 163.585,132.370 163.105,131.844 162.824 C 131.318 162.542,130.658 161.882,130.376 161.356 C 130.095 160.830,129.615 160.400,129.309 160.400 C 129.003 160.400,128.864 160.220,129.000 160.000 C 129.136 159.780,128.967 159.600,128.624 159.600 C 128.281 159.600,128.000 159.330,128.000 159.000 C 128.000 158.670,127.865 158.400,127.700 158.400 C 127.189 158.399,125.200 156.532,125.200 156.053 C 125.200 155.742,123.754 155.600,120.571 155.600 C 115.968 155.600,114.800 155.282,114.800 154.029 C 114.800 153.793,114.618 153.600,114.397 153.600 C 113.761 153.600,111.598 151.526,111.835 151.144 C 111.952 150.955,111.844 150.800,111.595 150.800 C 111.022 150.800,110.000 149.793,110.000 149.229 C 110.000 148.993,109.812 148.800,109.582 148.800 C 109.039 148.800,107.200 146.961,107.200 146.418 C 107.200 146.188,106.996 146.000,106.747 146.000 C 104.921 146.000,103.879 143.057,104.060 138.412 C 104.137 136.425,104.054 134.800,103.876 134.800 C 103.698 134.800,103.645 134.650,103.759 134.467 C 104.506 133.257,97.562 133.611,96.357 134.844 C 95.764 135.450,95.172 135.838,95.040 135.706 C 94.908 135.575,94.800 135.671,94.800 135.921 C 94.800 136.518,91.030 140.400,90.450 140.400 C 90.202 140.400,90.000 140.542,90.000 140.717 C 90.000 140.891,89.370 141.701,88.600 142.518 L 87.200 144.002 87.200 170.921 C 87.200 191.902,87.310 197.959,87.700 198.379 C 88.104 198.814,88.093 198.856,87.638 198.597 C 87.262 198.382,87.171 198.429,87.362 198.738 C 87.519 198.992,87.911 199.200,88.234 199.200 C 88.556 199.200,88.991 199.650,89.200 200.200 C 89.428 200.799,89.896 201.200,90.366 201.200 C 90.799 201.200,91.269 201.388,91.411 201.618 C 91.575 201.883,93.756 202.015,97.324 201.977 C 105.115 201.894,104.443 203.202,104.382 188.240 C 104.339 177.713,104.410 176.182,104.966 175.775 C 105.315 175.520,105.600 175.151,105.600 174.954 C 105.600 174.757,106.141 174.356,106.802 174.063 C 107.464 173.770,107.923 173.399,107.823 173.237 C 106.936 171.802,114.855 170.798,116.229 172.171 C 116.869 172.812,117.001 173.371,116.428 173.017 C 116.223 172.891,115.942 172.970,115.804 173.193 C 115.666 173.417,114.123 173.600,112.376 173.600 C 109.820 173.600,109.200 173.717,109.200 174.200 C 109.200 174.530,109.007 174.800,108.771 174.800 C 108.233 174.800,107.200 175.811,107.200 176.338 C 107.200 176.555,107.009 176.797,106.775 176.875 C 106.487 176.971,106.325 181.306,106.275 190.208 L 106.200 203.400 102.800 203.507 C 100.930 203.567,99.130 203.730,98.800 203.871 C 98.470 204.012,98.065 204.098,97.900 204.064 C 97.735 204.029,97.600 207.840,97.600 212.532 L 97.600 221.065 98.556 221.576 C 99.082 221.858,99.742 222.518,100.024 223.044 C 100.305 223.570,100.775 224.000,101.068 224.000 C 101.360 224.000,101.600 224.281,101.600 224.624 C 101.600 224.967,101.753 225.153,101.940 225.037 C 102.127 224.922,102.517 225.271,102.807 225.814 C 103.098 226.356,103.575 226.800,103.868 226.800 C 104.160 226.800,104.400 227.081,104.400 227.424 C 104.400 227.767,104.580 227.936,104.800 227.800 C 105.020 227.664,105.200 227.833,105.200 228.176 C 105.200 228.519,105.393 228.800,105.629 228.800 C 106.182 228.800,107.200 229.818,107.200 230.371 C 107.200 230.607,107.335 230.779,107.500 230.753 C 107.665 230.727,109.555 230.727,111.700 230.753 L 115.600 230.800 115.600 239.786 C 115.600 248.404,115.633 248.790,116.411 249.206 C 116.857 249.445,117.116 249.812,116.986 250.023 C 116.856 250.233,117.076 250.508,117.475 250.632 C 117.874 250.757,118.513 251.025,118.895 251.229 C 119.979 251.808,129.549 251.699,130.204 251.100 C 130.504 250.825,131.391 250.062,132.175 249.404 C 132.959 248.746,133.600 247.951,133.600 247.637 C 133.600 247.323,133.708 247.175,133.840 247.307 C 134.177 247.643,136.800 245.188,136.800 244.536 C 136.800 244.241,137.025 244.045,137.300 244.100 C 137.575 244.155,137.755 243.975,137.700 243.700 C 137.645 243.425,137.735 243.221,137.900 243.247 C 140.543 243.665,158.400 243.101,158.400 242.600 C 158.400 242.270,158.578 242.000,158.795 242.000 C 159.619 242.000,168.800 232.837,168.800 232.014 C 168.800 231.786,169.070 231.600,169.400 231.600 C 169.730 231.600,170.000 231.420,170.000 231.200 C 170.000 230.523,179.941 230.684,180.629 231.371 C 181.283 232.026,181.396 232.568,180.800 232.200 C 180.580 232.064,180.400 232.143,180.400 232.376 C 180.400 232.650,178.753 232.800,175.738 232.800 L 171.076 232.800 168.558 235.271 C 167.174 236.630,166.135 237.895,166.250 238.081 C 166.365 238.267,166.304 238.370,166.114 238.310 C 165.624 238.154,162.400 240.977,162.400 241.562 C 162.400 241.829,162.220 241.936,162.000 241.800 C 161.780 241.664,161.600 241.923,161.600 242.376 C 161.600 242.913,161.340 243.200,160.856 243.200 C 160.447 243.200,159.774 243.650,159.361 244.200 L 158.610 245.200 148.553 245.200 L 138.496 245.200 136.748 247.148 C 135.787 248.219,134.735 249.479,134.412 249.948 C 134.088 250.417,133.658 250.800,133.456 250.800 C 131.684 250.800,131.212 262.978,132.922 264.563 C 133.429 265.033,133.964 265.729,134.110 266.109 C 134.346 266.724,135.080 266.800,140.787 266.800 L 147.200 266.800 147.200 263.400 L 147.200 260.000 159.367 260.000 C 172.163 260.000,172.800 260.057,172.800 261.200 C 172.800 262.361,171.922 262.447,160.810 262.372 L 150.200 262.300 150.090 268.769 C 149.982 275.115,150.203 276.400,151.400 276.400 C 151.815 276.400,152.800 277.505,152.800 277.971 C 152.800 278.207,152.993 278.400,153.229 278.400 C 153.695 278.400,154.800 279.385,154.800 279.800 C 154.800 280.134,155.866 281.200,156.200 281.200 C 156.572 281.200,157.600 282.284,157.600 282.675 C 157.600 283.817,159.425 284.023,169.213 283.986 C 177.609 283.955,179.200 283.857,179.200 283.374 C 179.200 283.058,179.427 282.800,179.705 282.800 C 180.205 282.800,181.550 281.284,181.574 280.693 C 181.592 280.252,184.424 277.474,185.338 277.000 C 185.763 276.780,186.074 276.442,186.030 276.249 C 185.986 276.057,186.366 275.691,186.875 275.438 L 187.800 274.976 187.902 228.895 C 188.012 178.920,188.103 181.200,185.999 181.200 C 185.657 181.200,185.117 180.840,184.800 180.400 C 184.483 179.960,183.993 179.600,183.712 179.600 C 183.430 179.600,183.200 179.330,183.200 179.000 C 183.200 178.670,183.020 178.400,182.800 178.400 C 182.578 178.400,182.400 177.341,182.400 176.024 C 182.400 174.717,182.580 173.536,182.800 173.400 C 183.020 173.264,183.200 172.803,183.200 172.376 C 183.200 171.949,183.470 171.600,183.800 171.600 C 184.130 171.600,184.400 171.420,184.400 171.200 C 184.400 170.980,184.741 170.800,185.157 170.800 C 185.574 170.800,186.017 170.533,186.142 170.207 C 186.272 169.869,186.635 169.715,186.985 169.850 C 187.323 169.979,187.600 169.898,187.600 169.670 C 187.600 168.882,189.228 168.701,190.003 169.403 C 190.414 169.775,190.926 169.969,191.143 169.836 C 191.359 169.702,191.807 169.864,192.139 170.196 C 192.471 170.528,192.981 170.801,193.271 170.803 C 193.817 170.806,194.800 172.543,194.800 173.503 C 194.800 173.802,194.948 173.956,195.129 173.844 C 195.311 173.732,195.500 174.531,195.549 175.620 C 195.603 176.793,195.468 177.600,195.220 177.600 C 194.989 177.600,194.800 177.958,194.800 178.395 C 194.800 179.319,193.612 180.855,193.129 180.556 C 192.948 180.444,192.800 180.543,192.800 180.776 C 192.800 181.009,192.549 181.200,192.243 181.200 C 191.936 181.200,191.582 181.470,191.455 181.800 C 191.329 182.130,190.949 182.400,190.613 182.400 C 190.066 182.400,190.000 187.402,190.000 228.829 C 190.000 277.406,190.033 276.400,188.429 276.400 C 188.193 276.400,188.045 276.542,188.100 276.715 C 188.231 277.127,186.160 279.200,185.618 279.200 C 185.388 279.200,185.200 279.440,185.200 279.732 C 185.200 280.025,184.759 280.501,184.219 280.790 C 183.680 281.078,183.275 281.431,183.319 281.573 C 183.435 281.943,181.316 284.000,180.818 284.000 C 180.588 284.000,180.400 284.193,180.400 284.429 C 180.400 285.907,179.505 286.023,168.425 285.987 C 162.480 285.968,157.634 285.828,157.655 285.676 C 157.754 284.984,157.577 284.290,157.357 284.509 C 157.040 284.826,156.029 283.891,156.266 283.500 C 156.365 283.335,156.137 283.200,155.757 283.200 C 155.377 283.200,155.172 283.095,155.300 282.966 C 155.629 282.638,154.330 281.196,153.929 281.444 C 153.748 281.556,153.600 281.367,153.600 281.024 C 153.600 280.681,153.319 280.400,152.976 280.400 C 152.633 280.400,152.456 280.233,152.582 280.029 C 152.708 279.825,152.446 279.542,152.000 279.400 C 151.554 279.258,151.292 278.975,151.418 278.771 C 151.544 278.567,151.389 278.400,151.072 278.400 C 150.756 278.400,150.197 277.995,149.830 277.500 C 149.463 277.005,149.290 276.870,149.446 277.200 C 149.878 278.119,149.145 277.337,148.608 276.307 C 148.348 275.808,147.952 275.436,147.730 275.479 C 147.496 275.525,147.288 274.438,147.239 272.909 C 147.129 269.520,147.114 269.452,146.400 269.128 C 146.070 268.979,143.132 268.844,139.871 268.828 C 134.047 268.800,132.830 268.543,132.789 267.329 C 132.783 267.148,132.158 266.550,131.400 266.000 C 130.642 265.450,130.017 264.790,130.011 264.533 C 130.005 264.277,129.829 264.007,129.620 263.933 C 129.411 263.860,129.212 261.550,129.178 258.800 C 129.099 252.427,129.510 252.800,122.551 252.800 C 118.984 252.800,116.800 252.648,116.800 252.400 C 116.800 252.180,116.634 252.000,116.431 252.000 C 116.228 252.000,115.508 251.446,114.831 250.769 L 113.600 249.538 113.600 241.741 C 113.600 232.736,113.702 232.991,110.047 232.842 C 107.578 232.742,107.427 232.674,105.492 230.770 C 104.392 229.686,103.330 228.800,103.133 228.800 C 102.936 228.800,102.659 228.499,102.518 228.131 C 102.184 227.260,100.918 226.000,100.376 226.000 C 100.143 226.000,100.032 225.865,100.129 225.700 C 100.352 225.321,96.126 221.208,95.823 221.510 C 95.701 221.633,95.600 217.840,95.600 213.081 C 95.600 203.151,95.780 203.600,91.814 203.600 C 90.193 203.600,89.511 203.434,89.345 203.000 C 89.218 202.670,88.864 202.400,88.557 202.400 C 88.251 202.400,88.000 202.207,88.000 201.971 C 88.000 201.418,86.982 200.400,86.429 200.400 C 86.193 200.400,86.000 200.130,86.000 199.800 C 86.000 199.470,85.820 199.200,85.600 199.200 C 85.337 199.200,85.200 189.611,85.200 171.233 L 85.200 143.267 86.300 142.404 C 86.905 141.929,87.147 141.672,86.838 141.832 C 86.469 142.024,86.374 141.965,86.562 141.662 C 86.719 141.408,87.017 141.200,87.224 141.200 C 87.765 141.200,89.178 139.711,88.900 139.433 C 88.772 139.305,88.886 139.200,89.153 139.200 C 89.701 139.200,94.400 134.614,94.400 134.080 C 94.400 133.890,94.850 133.494,95.400 133.200 C 95.950 132.906,96.414 132.380,96.432 132.032 C 96.452 131.619,96.533 131.573,96.665 131.900 C 96.946 132.596,101.617 132.551,102.988 131.840 L 104.068 131.280 104.018 114.840 C 103.976 101.155,104.060 98.400,104.516 98.400 C 104.818 98.400,105.306 97.950,105.600 97.400 C 105.894 96.850,106.482 96.400,106.905 96.400 C 107.337 96.400,107.766 96.051,107.883 95.604 C 107.997 95.167,108.250 94.908,108.445 95.028 C 108.640 95.149,108.800 95.057,108.800 94.824 C 108.800 94.591,109.025 94.445,109.300 94.500 C 109.575 94.555,109.759 94.388,109.710 94.129 C 109.660 93.870,110.155 93.421,110.810 93.132 L 112.000 92.605 112.000 83.702 C 112.000 78.034,112.145 74.800,112.400 74.800 C 112.620 74.800,112.800 74.614,112.800 74.387 C 112.800 74.159,113.340 73.445,114.000 72.800 C 114.660 72.155,115.200 71.701,115.200 71.791 C 115.200 71.882,116.370 70.786,117.800 69.356 C 119.230 67.926,120.400 66.697,120.400 66.625 C 120.400 66.309,123.732 63.200,124.071 63.200 C 124.278 63.200,124.342 63.029,124.212 62.820 C 123.816 62.178,126.521 61.912,131.959 62.059 C 138.198 62.228,137.587 63.171,137.595 53.364 L 137.600 46.128 141.669 41.864 L 145.739 37.600 163.969 37.613 C 179.366 37.623,182.321 37.717,182.976 38.213 M244.835 51.313 C 246.114 52.295,246.400 53.550,246.400 58.187 C 246.400 64.268,246.374 64.317,239.437 71.200 L 233.591 77.000 223.496 77.200 L 213.400 77.400 213.400 89.400 L 213.400 101.400 221.292 101.600 L 229.184 101.800 232.501 105.100 C 236.627 109.206,235.972 109.317,241.851 103.518 L 246.800 98.636 246.800 89.993 C 246.800 80.918,247.070 79.600,248.927 79.600 C 251.082 79.600,251.200 80.167,251.200 90.528 L 251.200 100.211 245.600 105.800 C 242.520 108.874,240.000 111.646,240.000 111.960 C 240.000 112.273,241.890 114.468,244.200 116.837 L 248.400 121.144 248.387 135.472 C 248.374 150.806,248.324 151.200,246.387 151.200 C 244.006 151.200,244.000 151.165,244.000 136.241 L 244.000 122.607 235.503 114.103 L 227.007 105.600 218.962 105.600 C 210.977 105.600,210.909 105.593,209.858 104.619 L 208.800 103.638 208.800 89.494 L 208.800 75.350 209.922 74.275 L 211.044 73.200 221.141 73.200 L 231.239 73.200 236.619 67.875 L 242.000 62.550 242.000 58.875 L 242.000 55.200 239.900 55.169 C 238.745 55.152,235.558 55.139,232.817 55.140 C 226.017 55.142,223.292 53.668,225.680 51.280 C 226.364 50.596,243.940 50.626,244.835 51.313 M174.800 52.378 C 174.800 53.352,173.338 53.570,166.493 53.617 C 156.808 53.684,157.705 53.205,157.628 58.356 C 157.557 63.138,157.743 64.000,158.843 64.000 C 159.259 64.000,159.600 64.270,159.600 64.600 C 159.600 64.930,159.791 65.200,160.024 65.200 C 160.257 65.200,160.336 65.380,160.200 65.600 C 160.064 65.820,160.368 66.014,160.876 66.032 C 161.384 66.049,161.580 66.152,161.312 66.261 C 160.927 66.417,160.927 66.571,161.312 66.987 C 161.580 67.278,161.890 67.464,162.000 67.400 C 162.110 67.336,162.432 67.535,162.716 67.842 C 162.999 68.149,163.131 68.400,163.009 68.400 C 162.797 68.400,164.864 70.449,168.055 73.402 L 169.509 74.748 179.601 74.764 C 186.591 74.774,189.863 74.920,190.246 75.238 C 190.933 75.808,191.083 103.200,190.400 103.200 C 190.180 103.200,190.000 103.470,190.000 103.800 C 190.000 104.314,188.822 104.400,181.800 104.400 C 177.290 104.400,173.511 104.401,173.403 104.403 C 173.035 104.408,166.400 111.255,166.400 111.629 C 166.400 111.833,166.160 112.000,165.868 112.000 C 165.575 112.000,165.099 112.441,164.810 112.981 C 164.522 113.520,164.176 113.931,164.043 113.892 C 163.676 113.788,159.600 118.024,159.600 118.510 C 159.600 118.743,159.506 118.839,159.390 118.724 C 159.275 118.608,158.420 119.253,157.490 120.157 L 155.800 121.800 155.685 135.900 L 155.571 150.000 154.585 150.000 L 153.600 150.000 153.600 135.600 C 153.600 125.732,153.733 121.200,154.024 121.200 C 154.257 121.200,154.333 121.016,154.194 120.790 C 154.055 120.565,154.179 120.430,154.470 120.490 C 154.762 120.551,154.951 120.362,154.890 120.070 C 154.830 119.779,154.920 119.625,155.090 119.728 C 155.261 119.832,155.632 119.665,155.916 119.358 C 156.199 119.051,156.289 118.797,156.116 118.794 C 155.942 118.791,156.250 118.551,156.800 118.261 C 157.350 117.972,157.740 117.479,157.667 117.167 C 157.593 116.855,157.658 116.724,157.809 116.876 C 158.180 117.247,159.175 116.297,158.896 115.838 C 158.775 115.639,158.886 115.606,159.142 115.764 C 159.424 115.938,159.880 115.577,160.298 114.848 C 160.679 114.186,161.307 113.561,161.695 113.459 C 162.530 113.241,162.731 110.734,161.900 110.900 C 161.625 110.955,161.445 110.775,161.500 110.500 C 161.555 110.225,161.330 110.000,161.000 110.000 C 160.670 110.000,160.400 109.730,160.400 109.400 C 160.400 109.070,160.238 108.800,160.040 108.800 C 159.571 108.800,156.800 106.029,156.800 105.560 C 156.800 105.362,156.607 105.200,156.371 105.200 C 155.818 105.200,154.800 104.182,154.800 103.629 C 154.800 103.393,154.607 103.200,154.371 103.200 C 153.788 103.200,152.800 102.170,152.800 101.562 C 152.800 101.290,152.695 101.172,152.567 101.300 C 152.438 101.428,151.988 101.188,151.567 100.767 C 150.854 100.054,150.800 99.327,150.800 90.373 L 150.800 80.746 151.700 81.023 C 152.195 81.175,152.636 81.328,152.681 81.364 C 152.726 81.400,152.816 85.562,152.881 90.614 C 152.973 97.699,153.114 99.777,153.500 99.700 C 153.775 99.645,154.000 99.876,154.000 100.213 C 154.000 100.550,154.405 100.989,154.900 101.188 C 155.395 101.387,155.643 101.561,155.451 101.575 C 155.259 101.589,155.324 101.868,155.596 102.196 C 155.868 102.523,156.250 102.693,156.445 102.572 C 156.640 102.451,156.800 102.639,156.800 102.989 C 156.800 103.339,157.205 103.789,157.700 103.988 C 158.195 104.187,158.443 104.361,158.251 104.375 C 158.059 104.389,158.124 104.668,158.396 104.996 C 158.668 105.323,159.055 105.490,159.255 105.366 C 159.456 105.242,159.570 105.379,159.510 105.670 C 159.449 105.964,159.668 106.140,160.000 106.067 C 160.330 105.993,160.467 106.067,160.303 106.230 C 159.919 106.615,160.780 107.659,161.245 107.372 C 161.440 107.251,161.603 107.388,161.607 107.676 C 161.611 107.964,162.095 108.650,162.682 109.200 C 163.270 109.750,163.592 109.930,163.399 109.600 C 163.120 109.125,163.166 109.089,163.623 109.429 C 164.494 110.077,166.000 110.043,166.000 109.375 C 166.000 109.059,166.270 108.800,166.600 108.800 C 166.930 108.800,167.200 108.500,167.200 108.133 C 167.200 107.767,167.318 107.584,167.461 107.728 C 167.605 107.872,168.117 107.454,168.600 106.800 C 169.083 106.146,169.565 105.698,169.671 105.805 C 169.778 105.911,170.087 105.586,170.357 105.081 C 171.323 103.276,172.034 103.135,179.945 103.180 C 186.127 103.215,187.552 103.115,188.293 102.593 L 189.186 101.965 189.093 89.482 L 189.000 77.000 179.200 76.896 C 170.558 76.805,169.341 76.713,168.900 76.120 C 168.625 75.750,168.400 75.582,168.400 75.746 C 168.400 75.911,167.860 75.726,167.200 75.336 C 166.540 74.946,166.000 74.386,166.000 74.090 C 166.000 73.795,165.820 73.664,165.600 73.800 C 165.380 73.936,165.200 73.844,165.200 73.595 C 165.200 73.022,164.193 72.000,163.629 72.000 C 163.393 72.000,163.200 71.807,163.200 71.571 C 163.200 71.007,162.178 70.000,161.605 70.000 C 161.356 70.000,161.264 69.820,161.400 69.600 C 161.536 69.380,161.463 69.200,161.238 69.200 C 160.806 69.200,157.600 66.016,157.600 65.587 C 157.600 65.449,157.150 65.094,156.600 64.800 C 155.355 64.134,154.991 53.408,156.198 52.946 C 156.526 52.819,156.692 52.549,156.566 52.345 C 156.428 52.121,159.992 51.991,165.569 52.015 C 170.646 52.037,174.800 52.200,174.800 52.378 M183.900 102.698 C 181.975 102.771,178.825 102.771,176.900 102.698 C 174.975 102.625,176.550 102.565,180.400 102.565 C 184.250 102.565,185.825 102.625,183.900 102.698 M275.971 108.654 C 276.755 109.651,276.800 110.206,276.800 118.923 L 276.800 128.139 268.600 136.400 L 260.400 144.661 260.400 153.020 L 260.400 161.378 257.912 163.889 L 255.423 166.400 247.975 166.400 L 240.527 166.400 238.063 163.835 L 235.600 161.269 235.600 151.170 L 235.600 141.071 230.720 136.136 L 225.841 131.200 222.320 131.200 L 218.800 131.200 218.800 141.020 C 218.800 152.601,219.056 151.781,214.020 156.317 L 210.375 159.600 207.887 159.587 C 205.121 159.573,204.000 158.996,204.000 157.587 C 204.000 156.026,205.107 155.200,207.201 155.200 C 208.977 155.200,209.214 155.062,211.639 152.623 L 214.200 150.047 214.400 138.523 L 214.600 127.000 220.985 126.889 L 227.370 126.779 233.685 133.085 L 240.000 139.391 240.000 149.573 L 240.000 159.756 241.075 160.878 L 242.150 162.000 248.000 162.000 L 253.850 162.000 255.025 160.775 L 256.200 159.549 256.321 151.049 L 256.443 142.550 264.421 134.579 L 272.400 126.608 272.400 117.919 C 272.400 109.497,272.427 109.206,273.275 108.416 C 274.431 107.339,274.974 107.387,275.971 108.654 M126.720 109.280 C 127.065 109.625,127.202 112.349,127.206 118.980 C 127.210 125.081,127.343 127.997,127.600 127.600 C 127.914 127.115,127.989 127.172,127.994 127.900 C 127.997 128.431,128.246 128.800,128.600 128.800 C 128.930 128.800,129.200 128.993,129.200 129.229 C 129.200 129.782,130.218 130.800,130.771 130.800 C 131.007 130.800,131.200 130.980,131.200 131.200 C 131.200 131.420,131.470 131.600,131.800 131.600 C 132.130 131.600,132.400 131.887,132.400 132.237 C 132.400 132.588,132.753 132.967,133.185 133.080 C 133.617 133.193,134.196 133.795,134.472 134.418 C 134.748 135.041,135.384 135.738,135.887 135.967 C 136.389 136.196,136.800 136.667,136.800 137.015 C 136.800 137.363,136.980 137.536,137.200 137.400 C 137.420 137.264,137.600 137.433,137.600 137.776 C 137.600 138.119,137.735 138.358,137.900 138.307 C 138.366 138.163,139.984 139.702,139.756 140.071 C 139.644 140.252,139.844 140.400,140.200 140.400 C 140.556 140.400,140.736 140.580,140.600 140.800 C 140.464 141.020,140.633 141.200,140.976 141.200 C 141.319 141.200,141.600 141.335,141.600 141.500 C 141.601 141.665,142.057 142.330,142.614 142.977 L 143.626 144.155 143.583 152.300 C 143.541 160.263,143.788 162.025,144.855 161.366 C 145.056 161.242,145.187 161.289,145.146 161.470 C 144.799 163.029,145.515 163.200,152.343 163.188 L 159.000 163.177 160.300 161.994 L 161.600 160.811 161.600 150.606 C 161.600 144.069,161.744 140.400,162.000 140.400 C 162.220 140.400,162.400 140.196,162.400 139.946 C 162.400 139.696,162.859 139.066,163.421 138.546 C 163.982 138.026,164.328 137.600,164.190 137.600 C 164.052 137.600,164.537 137.107,165.269 136.504 C 167.201 134.912,168.647 133.459,168.757 133.000 C 168.810 132.780,169.129 132.657,169.466 132.727 C 169.804 132.796,169.981 132.694,169.861 132.498 C 169.616 132.103,170.972 130.800,171.628 130.800 C 171.859 130.800,171.936 130.620,171.800 130.400 C 171.664 130.180,171.833 130.000,172.176 130.000 C 172.519 130.000,172.800 129.807,172.800 129.571 C 172.800 128.263,173.935 128.000,179.571 128.000 L 185.200 128.000 185.200 138.967 C 185.200 149.714,185.320 151.420,186.042 150.974 C 186.239 150.852,186.400 151.044,186.400 151.400 C 186.400 151.805,186.587 151.939,186.900 151.759 C 187.175 151.601,187.263 151.622,187.096 151.806 C 186.682 152.263,188.406 154.038,188.958 153.724 C 189.201 153.585,189.262 153.623,189.094 153.808 C 188.256 154.731,190.919 156.400,193.232 156.400 C 194.771 156.400,195.581 156.575,195.720 156.936 C 196.156 158.071,195.353 158.447,192.677 158.361 C 191.221 158.313,190.124 158.123,190.239 157.937 C 190.353 157.752,190.210 157.600,189.920 157.600 C 189.630 157.600,188.854 156.974,188.196 156.209 C 187.538 155.443,186.775 154.813,186.500 154.809 C 186.225 154.804,186.000 154.607,186.000 154.371 C 186.000 153.890,185.010 152.800,184.573 152.800 C 183.405 152.800,183.225 151.202,183.213 140.700 L 183.200 130.000 178.986 130.000 C 174.990 130.000,172.487 130.638,172.933 131.544 C 173.063 131.808,170.730 134.278,170.519 134.100 C 170.453 134.045,170.400 134.090,170.400 134.200 C 170.400 134.598,168.990 135.885,168.600 135.843 C 168.380 135.819,168.236 135.999,168.281 136.243 C 168.325 136.486,167.920 136.922,167.381 137.210 C 166.841 137.499,166.400 137.975,166.400 138.268 C 166.400 138.560,166.175 138.755,165.900 138.700 C 165.625 138.645,165.445 138.825,165.500 139.100 C 165.555 139.375,165.330 139.600,165.000 139.600 C 164.481 139.600,164.400 141.074,164.400 150.467 C 164.400 156.443,164.278 161.212,164.130 161.063 C 163.740 160.673,161.976 162.438,162.274 162.920 C 162.416 163.149,162.324 163.200,162.062 163.038 C 161.785 162.867,161.600 163.013,161.600 163.400 C 161.600 163.756,161.440 163.949,161.245 163.828 C 160.829 163.571,159.898 164.565,160.238 164.904 C 160.906 165.573,145.626 165.214,144.842 164.543 C 144.401 164.166,144.150 163.682,144.282 163.467 C 144.415 163.252,144.348 163.185,144.133 163.318 C 143.719 163.574,142.400 162.263,142.400 161.595 C 142.400 161.378,142.118 161.200,141.774 161.200 C 141.222 161.200,141.158 160.174,141.231 152.616 C 141.319 143.582,140.903 141.618,138.900 141.604 C 138.625 141.602,138.400 141.450,138.400 141.267 C 138.400 140.770,132.472 134.800,131.978 134.800 C 131.744 134.800,131.644 134.652,131.756 134.471 C 131.947 134.162,130.956 133.085,130.300 132.890 C 130.135 132.840,129.995 132.715,129.988 132.612 C 129.961 132.185,125.776 128.164,125.500 128.300 C 125.129 128.482,125.096 109.437,125.467 109.067 C 125.852 108.681,126.176 108.736,126.720 109.280 M125.317 253.496 C 123.951 253.574,121.611 253.574,120.117 253.497 C 118.622 253.420,119.740 253.356,122.600 253.355 C 125.460 253.355,126.682 253.418,125.317 253.496 " stroke="none" fill="#fcc604" fill-rule="evenodd"></path><path id="path1" d="M223.729 341.500 C 230.950 341.561,242.650 341.561,249.729 341.500 C 256.808 341.439,250.900 341.389,236.600 341.389 C 222.300 341.389,216.508 341.439,223.729 341.500 M145.282 342.296 C 146.758 342.373,149.278 342.373,150.882 342.297 C 152.487 342.221,151.280 342.158,148.200 342.158 C 145.120 342.157,143.807 342.219,145.282 342.296 M164.082 342.296 C 165.558 342.373,168.078 342.373,169.682 342.297 C 171.287 342.221,170.080 342.158,167.000 342.158 C 163.920 342.157,162.607 342.219,164.082 342.296 M180.908 342.241 C 181.184 342.517,191.271 342.463,191.550 342.184 C 191.651 342.083,189.243 342.000,186.200 342.000 C 183.157 342.000,180.775 342.109,180.908 342.241 M145.900 343.895 C 147.055 343.976,148.945 343.976,150.100 343.895 C 151.255 343.814,150.310 343.748,148.000 343.748 C 145.690 343.748,144.745 343.814,145.900 343.895 M165.100 343.895 C 166.255 343.976,168.145 343.976,169.300 343.895 C 170.455 343.814,169.510 343.748,167.200 343.748 C 164.890 343.748,163.945 343.814,165.100 343.895 M184.115 343.896 C 185.388 343.976,187.368 343.975,188.515 343.894 C 189.662 343.814,188.620 343.749,186.200 343.750 C 183.780 343.751,182.842 343.816,184.115 343.896 M264.142 347.400 C 264.141 349.380,264.208 350.240,264.292 349.312 C 264.376 348.384,264.377 346.764,264.295 345.712 C 264.212 344.660,264.143 345.420,264.142 347.400 M201.475 352.258 C 200.649 353.084,201.196 360.384,202.100 360.607 C 203.540 360.963,253.099 360.635,253.467 360.267 C 253.901 359.832,253.901 352.968,253.467 352.533 C 253.067 352.134,201.871 351.863,201.475 352.258 M143.905 353.483 C 144.402 353.579,145.122 353.575,145.505 353.475 C 145.887 353.375,145.480 353.296,144.600 353.301 C 143.720 353.305,143.407 353.387,143.905 353.483 M201.200 373.400 L 201.200 377.600 227.353 377.600 L 253.507 377.600 253.748 376.700 C 254.257 374.802,254.020 370.477,253.371 369.829 C 252.813 369.270,249.867 369.200,226.971 369.200 L 201.200 369.200 201.200 373.400 M146.131 373.800 C 146.133 375.340,146.205 375.921,146.292 375.091 C 146.379 374.261,146.377 373.001,146.289 372.291 C 146.200 371.581,146.129 372.260,146.131 373.800 M144.900 379.076 C 145.285 379.176,145.915 379.176,146.300 379.076 C 146.685 378.975,146.370 378.893,145.600 378.893 C 144.830 378.893,144.515 378.975,144.900 379.076 M249.376 393.787 C 248.949 394.110,248.780 394.375,249.000 394.375 C 249.220 394.375,249.749 394.110,250.176 393.787 C 250.604 393.464,250.773 393.200,250.553 393.200 C 250.333 393.200,249.804 393.464,249.376 393.787 M194.115 407.496 C 195.388 407.576,197.368 407.575,198.515 407.494 C 199.662 407.414,198.620 407.349,196.200 407.350 C 193.780 407.351,192.842 407.416,194.115 407.496 " stroke="none" fill="#1a649c" fill-rule="evenodd"></path><path id="path2" d="M201.600 341.767 C 201.600 341.968,201.482 342.015,201.337 341.870 C 201.192 341.725,200.856 341.788,200.589 342.009 C 200.273 342.271,189.434 342.409,169.486 342.405 C 138.807 342.399,137.182 342.448,138.110 343.358 C 138.481 343.722,144.173 343.823,161.600 343.776 C 174.250 343.741,188.155 343.806,192.500 343.919 L 200.400 344.124 200.400 347.462 L 200.400 350.800 168.604 350.800 L 136.809 350.800 136.892 351.800 C 136.937 352.350,137.205 352.800,137.487 352.800 C 137.769 352.800,138.000 353.001,138.000 353.246 C 138.000 353.554,139.265 353.647,142.100 353.546 L 146.200 353.400 146.318 356.300 L 146.435 359.200 144.898 359.200 C 142.577 359.200,142.400 359.590,142.400 364.693 C 142.400 368.479,142.505 369.266,143.040 369.471 C 144.108 369.881,144.427 368.771,144.325 365.000 L 144.228 361.400 145.767 361.273 C 146.613 361.203,147.498 361.338,147.733 361.573 C 148.027 361.867,156.288 362.000,174.280 362.000 L 200.400 362.000 200.400 365.000 L 200.400 368.000 173.880 368.000 C 143.406 368.000,146.400 367.490,146.400 372.680 L 146.400 376.400 145.249 376.400 C 143.817 376.400,142.876 377.397,143.450 378.307 C 143.946 379.093,141.302 379.022,173.500 379.119 L 200.400 379.200 200.400 392.600 L 200.400 406.000 195.700 406.047 C 193.115 406.073,190.865 406.073,190.700 406.047 C 190.404 406.001,190.306 406.517,190.500 407.100 C 190.555 407.265,192.729 407.336,195.332 407.257 C 199.753 407.123,200.103 407.168,200.645 407.943 C 201.409 409.033,220.937 409.261,221.351 408.185 C 221.501 407.792,222.163 407.600,223.364 407.600 C 224.348 407.600,225.264 407.420,225.400 407.200 C 225.536 406.980,225.997 406.800,226.424 406.800 C 226.851 406.800,227.200 406.620,227.200 406.400 C 227.200 406.180,227.425 405.997,227.700 405.993 C 227.975 405.989,228.624 405.539,229.142 404.993 C 229.660 404.447,230.245 404.000,230.442 404.000 C 230.639 404.000,230.800 403.730,230.800 403.400 C 230.800 403.070,231.081 402.800,231.424 402.800 C 231.767 402.800,231.948 402.639,231.826 402.442 C 231.704 402.245,231.874 401.981,232.202 401.854 C 232.531 401.728,232.800 401.337,232.800 400.984 C 232.800 400.022,233.674 399.334,235.218 399.078 C 239.285 398.404,241.008 397.976,241.130 397.609 C 241.205 397.384,241.781 397.200,242.410 397.200 C 243.038 397.200,243.664 397.020,243.800 396.800 C 243.936 396.580,244.402 396.400,244.836 396.400 C 245.270 396.400,245.729 396.130,245.855 395.800 C 245.982 395.470,246.340 395.200,246.651 395.200 C 247.253 395.200,250.508 393.206,250.733 392.700 C 250.807 392.535,251.077 392.396,251.333 392.391 C 251.590 392.385,252.330 391.665,252.977 390.791 C 253.624 389.916,254.299 389.200,254.477 389.200 C 254.655 389.200,254.800 388.840,254.800 388.400 C 254.800 387.960,254.980 387.600,255.200 387.600 C 255.420 387.600,255.600 387.319,255.600 386.976 C 255.600 386.633,255.757 386.450,255.949 386.568 C 256.322 386.799,257.600 383.813,257.600 382.710 C 257.600 382.346,257.780 381.936,258.000 381.800 C 258.220 381.664,258.400 380.393,258.400 378.976 L 258.400 376.400 256.000 376.400 C 254.133 376.400,253.600 376.533,253.600 377.000 C 253.600 377.527,250.422 377.600,227.400 377.600 L 201.200 377.600 201.200 373.400 L 201.200 369.200 226.984 369.200 C 252.495 369.200,252.777 369.209,253.536 370.023 C 254.155 370.688,254.698 370.823,256.362 370.723 L 258.421 370.600 258.310 365.000 L 258.200 359.400 255.900 359.280 C 254.120 359.187,253.600 359.289,253.600 359.730 C 253.600 360.048,253.048 360.410,252.350 360.550 C 250.478 360.924,202.282 360.840,201.685 360.461 C 201.307 360.221,201.200 359.071,201.285 356.167 L 201.400 352.200 226.200 352.086 C 251.792 351.968,253.600 352.029,253.600 353.018 C 253.600 353.932,263.521 353.871,263.872 352.955 C 264.323 351.782,264.227 342.628,263.759 342.130 C 263.209 341.544,201.600 341.184,201.600 341.767 " stroke="none" fill="#0493b4" fill-rule="evenodd"></path><path id="path3" d="" stroke="none" fill="#bc9860" fill-rule="evenodd"></path><path id="path4" d="" stroke="none" fill="#1009804" fill-rule="evenodd"></path><path id="path5" d="" stroke="none" fill="#1009804" fill-rule="evenodd"></path><path id="path6" d="" stroke="none" fill="#1009804" fill-rule="evenodd"></path><path id="path7" d="" stroke="none" fill="#1009804" fill-rule="evenodd"></path><path id="path8" d="" stroke="none" fill="#1009804" fill-rule="evenodd"></path></g></svg>